<svg width="162" height="31" viewBox="0 0 162 31" fill="none" xmlns="http://www.w3.org/2000/svg">
<path d="M9.17931 0.458924C9.92416 0.5669 10.2243 1.43436 9.80887 2.03647C9.77976 2.07893 9.7473 2.11455 9.71317 2.14667C9.52857 2.32038 9.43771 2.55255 9.46776 2.80425C9.52875 3.31518 9.97799 3.68487 10.4925 3.67788C11.3911 3.66567 12.2859 3.73553 13.1561 3.99101C14.73 4.45402 16.0092 5.43495 16.7248 6.92099C16.8218 7.1223 16.8858 7.4023 16.992 7.58165C17.1219 7.80309 17.3123 7.86348 17.4239 8.15996C17.6947 8.88468 17.8466 10.6397 17.5447 11.348C17.4843 11.4907 17.3726 11.5987 17.3251 11.7341C17.2207 12.0233 17.1915 12.3802 17.0707 12.6913C16.5378 14.0671 14.9914 14.7661 13.5976 14.9454C13.5316 14.9539 13.4789 15.0047 13.4693 15.0705C13.4573 15.1537 13.5177 15.2299 13.6016 15.2354C14.7114 15.3087 16.1876 15.2535 17.0597 15.9928C17.1494 16.0678 17.2464 16.2325 17.3068 16.2709C17.6106 16.4613 18.3957 16.0861 18.6812 15.9196C20.0529 15.1156 19.2882 13.2287 18.7824 11.7213C18.7761 11.7024 18.7698 11.6835 18.7635 11.6646C18.6006 11.1741 18.2419 9.96077 18.4982 9.51972C18.8486 8.91709 20.0753 8.62181 20.0888 7.92482C20.0913 7.79489 20.0985 7.66627 20.1123 7.53956C20.2553 6.21375 21.7505 6.37634 21.8757 7.50658C21.884 7.58134 21.9325 7.64472 21.9735 7.58165C22.151 7.32544 22.2681 7.10217 22.5884 6.98687C22.8362 6.89771 23.0569 6.90689 23.2377 6.98539C23.6246 7.15344 24.536 7.64683 24.8852 7.88362C25.3715 8.21598 26.1426 9.58181 26.0878 10.1683C26.0858 10.1896 26.0833 10.2113 26.0802 10.2335C26.0327 10.5684 25.48 11.4175 25.3098 11.8037C24.9986 12.5156 24.8248 13.3702 24.3471 13.9906C24.2611 14.1004 24.0928 14.2048 24.0342 14.3237C23.928 14.5378 23.8823 14.9679 23.8036 15.2223C23.0073 17.7704 21.0186 19.5194 18.4014 19.965C18.2216 19.9956 18.0029 20.0312 17.9729 20.2111C17.9015 20.6467 17.8832 21.0932 17.7972 21.5288C17.4699 23.1668 16.6976 24.9136 15.2904 25.8549C14.7788 26.1972 14.5481 26.9492 14.3395 27.5283C14.0969 28.2022 13.88 29.3305 13.5214 29.9505C13.5096 29.9709 13.4971 29.9911 13.4837 30.0113C12.8066 31.0252 9.82168 31.0197 9.21775 29.9308C8.87057 29.3044 8.66146 28.1339 8.47326 27.4429C8.4241 27.2624 8.41471 27.0682 8.45306 26.8634C8.50782 26.571 8.46619 26.3414 8.19709 26.2145C8.06772 26.1535 7.94711 26.0977 7.90557 26.0748C6.31204 25.1787 5.22887 23.1868 5.17359 21.3647C5.17131 21.2897 5.12727 21.2308 5.0799 21.2891C4.53453 21.9241 4.16303 23.088 4.20329 23.9226C4.24538 24.7607 4.62238 25.0371 5.00304 25.7069C5.22082 26.0894 5.66187 26.8836 5.61795 27.3137C5.56854 27.8133 4.92617 27.9817 4.50525 27.8609C4.27914 27.7969 4.14102 27.8952 4.24831 28.1043C4.50709 28.6087 4.7377 29.196 4.17767 29.4696C3.72746 29.691 3.61949 29.4165 3.33765 29.4348C3.09425 29.4513 2.94052 29.6032 2.57084 29.5519C2.25058 29.508 2.11881 29.2884 1.8992 29.1749C1.70704 29.0761 1.49658 29.0578 1.27514 28.9114C0.323488 28.28 0.0892362 26.428 0.35643 25.4068C0.402182 25.2292 0.5431 25.0078 0.566891 24.8504C0.636435 24.3929 0.563231 23.7487 0.610813 23.2381C0.907288 19.9805 2.44457 16.4649 5.89795 15.6469C6.09743 15.5993 7.0381 15.4675 7.10948 15.4053C7.1717 15.3541 7.17536 15.085 7.10948 15.0393C7.06739 15.01 6.76908 14.9789 6.67208 14.9514C5.85586 14.7154 4.9335 14.2212 4.42656 13.5221C4.34237 13.4068 4.14838 13.0079 4.10995 12.9713C4.03126 12.8962 3.71648 12.8578 3.53347 12.6803C2.88013 12.0453 2.64222 9.45567 3.25164 8.76206C3.33216 8.67056 3.57557 8.52964 3.58655 8.51134C3.64328 8.41617 3.76772 7.68048 3.84825 7.46086C4.52192 5.59654 6.32937 4.32549 8.24204 3.94355C8.65843 3.8604 8.97576 3.4923 8.93731 3.06944C8.9054 2.71838 8.60842 2.46481 8.33072 2.24769C7.59932 1.67582 7.98772 0.284096 9.17931 0.458924ZM8.83525 2.09503C9.67344 2.26523 9.9205 0.96586 9.13905 0.821283C8.21668 0.652914 8.04831 1.93398 8.83525 2.09503ZM4.58669 7.43341C4.58715 7.43341 4.58748 7.43388 4.58736 7.43433C4.36995 8.23312 4.53464 8.17667 4.81637 8.81879C5.26657 9.85097 5.3654 11.4834 5.07258 12.5595C5.02134 12.7462 4.90055 12.8487 4.93167 13.061C4.98657 13.4325 5.79181 14.0419 6.11391 14.2212C7.46818 14.9716 9.75762 14.7959 11.2876 14.6989C14.6275 14.4848 17.0762 14.073 16.9188 10.1182C16.7852 6.76909 15.2589 4.49794 11.7195 4.25637C9.2967 4.08985 5.34794 4.64972 4.58602 7.43252C4.5859 7.43296 4.58623 7.43341 4.58669 7.43341ZM21.0585 11.509C20.9029 11.3571 20.6869 11.2217 20.5314 11.0661C20.1672 10.7001 19.6401 9.75397 19.1497 9.66247C18.8806 9.61122 18.7745 9.72286 18.78 9.99188C18.7891 10.4531 19.1423 11.5365 19.3217 11.994C19.8213 13.2678 20.8718 14.3201 22.3066 14.4189C24.3782 14.5616 24.4331 12.6272 25.1194 11.2126C25.2402 10.9618 25.8808 10.0669 25.641 9.8345C25.4013 9.60207 24.9126 9.94247 24.715 10.1218C24.5759 10.2481 24.1678 10.7971 24.0635 10.8447C23.9262 10.9069 23.745 10.8447 23.7432 10.68C23.7432 10.5208 24.2776 9.81071 24.3947 9.60024C24.5649 9.29462 25.0718 8.39238 24.5796 8.19107C24.0873 7.98976 23.67 8.77853 23.4797 9.12808C23.3699 9.32756 23.1374 9.95345 23.0386 10.0596C22.9233 10.1859 22.6744 10.1731 22.6506 9.99371C22.6305 9.83084 23.0295 8.96154 23.1063 8.71448C23.207 8.39238 23.5163 7.55786 23.0862 7.38217C22.2846 7.05458 21.9936 8.81513 21.9259 9.30926C21.9094 9.43553 21.9479 9.56181 21.9076 9.69358C21.7871 10.0913 21.4716 9.44827 21.4997 9.03367C21.5163 8.78883 21.5302 8.54383 21.5233 8.29722C21.5178 8.07211 21.4922 7.62008 21.4355 7.41511C21.2598 6.7636 20.5808 6.9155 20.5113 7.61276C20.4399 8.34114 20.5534 9.60573 20.632 10.3579C20.6906 10.9124 21.4995 11.1412 21.6898 11.6408C21.7905 11.9062 21.602 12.0983 21.4098 11.9391C21.3275 11.8714 21.1774 11.6243 21.0566 11.5072L21.0585 11.509ZM3.32667 9.56364C3.21321 10.1438 3.34314 11.4486 3.57923 11.994C3.9123 12.7626 4.58212 12.6785 4.64983 11.8147C4.69741 11.2089 4.63519 9.56181 4.26551 9.08782C4.20878 9.01461 4.06237 8.8737 3.97269 8.85357C3.58288 8.76755 3.38706 9.25436 3.32667 9.56364ZM23.4998 14.6603C23.4998 14.6604 23.4998 14.6605 23.4997 14.6605C23.1357 14.7878 22.7635 14.8355 22.3945 14.8196C21.3603 14.7752 20.1776 15.2203 19.3982 15.9015C19.0769 16.1823 18.6977 16.4099 18.2621 16.5875C17.8653 16.7489 17.7574 17.0316 17.8744 17.4436C17.9999 17.8861 18.063 18.3451 18.0854 18.8069C18.1045 19.1988 18.4345 19.5173 18.8178 19.4336C21.1254 18.9293 23.0611 16.9962 23.4995 14.6603C23.4995 14.6601 23.4998 14.6601 23.4998 14.6603ZM11.0863 15.9104C9.72285 15.9726 8.06479 15.9891 6.73797 16.2453C6.66547 16.2592 6.59566 16.2741 6.52837 16.2922C6.16746 16.3897 6.11066 16.7149 6.26763 17.0542C6.78921 18.1779 6.51653 19.1039 6.42319 20.2514C6.17979 23.2253 7.54687 25.9595 10.7276 26.3218C12.5833 26.5323 14.708 26.1461 15.9708 24.6729C17.2665 23.1612 17.9272 19.7445 17.5191 17.8338C17.1713 16.2087 16.2398 15.9324 14.7062 15.8427C13.5002 15.7713 12.2813 15.8555 11.0844 15.9104H11.0863ZM4.3561 21.6166C4.35666 21.6166 4.35718 21.6163 4.35744 21.6158C5.10434 20.209 6.78353 19.3525 5.79181 17.4495C5.49167 16.8749 5.00304 16.4558 4.34786 16.7632C2.17371 17.7863 1.04821 21.7155 0.969511 23.9226C0.968395 23.9538 0.965407 24.0198 0.964335 24.0966C0.960374 24.3804 1.16766 24.4489 1.44223 24.3769C1.6008 24.3353 1.76253 24.3027 1.92614 24.2783C2.87885 24.1362 3.72406 23.3728 4.00837 22.4525C4.09637 22.1676 4.21135 21.889 4.35476 21.6175C4.35502 21.617 4.35554 21.6166 4.3561 21.6166ZM1.35305 27.291C1.35352 27.2915 1.35429 27.2916 1.35491 27.2913C1.76725 27.1279 1.66499 27.5994 1.7107 27.8298C1.78539 28.202 2.00066 28.7877 2.35649 29.0377C2.61975 29.2227 2.78419 28.8563 2.60745 28.5875C2.50313 28.377 2.16456 27.4052 2.386 27.2735C2.46104 27.2295 2.54339 27.2478 2.61111 27.2918C2.73372 27.3705 2.83255 28.0933 2.92039 28.3148C3.04301 28.6222 3.42184 29.142 3.78054 29.153C4.56382 29.1804 3.74942 28.1025 3.63047 27.806C3.517 27.5242 3.26079 26.2651 3.87936 26.6695C4.1978 26.8782 4.31675 27.6139 4.94081 27.4858C5.27206 27.418 5.22082 27.1874 5.14213 26.9386C5.00121 26.4938 4.15204 24.9767 3.77322 24.7553C3.42001 24.5503 2.31463 24.6125 1.89188 24.6802C1.25501 24.7809 0.846895 25.0096 0.707808 25.6758C0.581174 26.2844 0.636248 27.1151 0.917419 27.7785C1.05672 28.1072 1.29043 27.9664 1.26594 27.6102C1.25612 27.4674 1.27597 27.3497 1.35083 27.2908C1.35149 27.2903 1.35245 27.2904 1.35305 27.291ZM13.4471 26.8708C12.3545 27.3265 10.7898 27.3631 9.67161 26.9752C9.54716 26.9312 9.08049 26.6897 9.02559 26.6915C8.87918 26.6933 8.83709 27.085 8.84441 27.1948C8.90663 28.0549 10.3378 28.3093 11.0039 28.3477C11.9305 28.4014 13.8722 28.315 13.9534 27.1753C13.9758 26.8603 13.7376 26.7471 13.4471 26.8708ZM12.4104 29.1438C12.4097 29.1438 12.4092 29.1439 12.4086 29.1441C11.9304 29.3177 10.7127 29.3596 10.2591 29.1328C10.012 29.0084 9.86194 28.6296 9.60573 29.0834C9.27265 29.6709 9.83815 30.0717 10.3506 30.2126C11.0021 30.3919 12.7626 30.4359 13.136 29.7459C13.2223 29.5853 13.2415 29.3948 13.1937 29.2252C13.1186 28.9583 12.7965 28.9535 12.5506 29.0816C12.5059 29.1049 12.4601 29.1262 12.4121 29.1435C12.4116 29.1437 12.411 29.1438 12.4104 29.1438Z" fill="#001F3F"/>
<path d="M16.9203 10.1182C16.9198 10.1182 16.9194 10.1186 16.9194 10.1191C17.0763 14.0731 14.6278 14.4848 11.2881 14.6989C9.75818 14.7977 7.46873 14.9716 6.11446 14.2212C5.79237 14.0419 4.98713 13.4325 4.93222 13.061C4.90111 12.8487 5.0219 12.7462 5.07314 12.5595C5.36595 11.4816 5.26896 9.84914 4.81693 8.81879C4.53692 8.17643 4.37038 8.23316 4.58816 7.43341C5.34948 4.64801 9.297 4.08983 11.7219 4.25637C15.2609 4.49792 16.7873 6.7705 16.9211 10.1172C16.9212 10.1177 16.9208 10.1182 16.9203 10.1182ZM13.045 9.63319C13.0963 10.1932 13.5794 11.1302 14.2529 10.68C14.9758 10.195 14.7873 8.18375 13.821 8.12885C13.1493 8.09042 12.9993 9.15004 13.045 9.63136V9.63319ZM8.32247 8.74559C8.32284 8.74559 8.32305 8.74601 8.32283 8.7463C7.78006 9.43124 8.09314 11.1686 9.11033 11.1082C10.2249 11.0424 10.0931 8.6065 9.01699 8.45278C8.70802 8.4089 8.51228 8.50748 8.32214 8.74487C8.3219 8.74516 8.3221 8.74559 8.32247 8.74559ZM12.6927 12.1898C12.693 12.1898 12.6931 12.1902 12.6929 12.1903C12.1729 12.4882 11.2183 12.5539 10.6622 12.3381C10.4701 12.263 10.1553 11.9592 9.9723 12.2136C9.78014 12.4808 10.3127 12.8047 10.5177 12.8853C11.2369 13.1653 12.8547 13.0372 13.325 12.3381C13.4202 12.1971 13.3836 12.0141 13.2152 11.9629C12.9576 11.8843 12.8751 12.0831 12.6926 12.1894C12.6924 12.1895 12.6925 12.1898 12.6927 12.1898Z" fill="white"/>
<path d="M17.5226 17.8339C17.5221 17.8339 17.5218 17.8343 17.5219 17.8348C17.9296 19.7437 17.2689 23.1615 15.9734 24.6729C14.7107 26.1462 12.5859 26.5342 10.7302 26.3219C7.54949 25.9595 6.18241 23.2272 6.42581 20.2514C6.51915 19.104 6.79366 18.1779 6.27026 17.0543C6.11304 16.7145 6.16977 16.3894 6.53132 16.2921C6.59858 16.274 6.66831 16.2592 6.74059 16.2454C8.06741 15.9873 9.72547 15.9727 11.0889 15.9105C12.2858 15.8556 13.5046 15.7714 14.7107 15.8427C16.244 15.9342 17.1754 16.2105 17.5233 17.833C17.5234 17.8334 17.5231 17.8339 17.5226 17.8339ZM8.38219 22.8941C8.38219 22.8951 8.38299 22.8959 8.38399 22.8959C8.72059 22.8923 9.18618 22.8958 9.50952 22.852C9.55894 22.8447 9.68887 22.7953 9.72365 22.7623C9.82247 22.6653 9.78404 22.1492 9.77489 21.9864C9.72181 20.9432 9.62482 19.6658 9.49305 18.6355C9.43632 18.1981 9.39423 18.156 8.94585 18.1688C8.60546 18.1798 8.06741 18.2036 7.73799 18.253C7.45067 18.2969 7.46348 18.5238 7.47446 18.7544C7.52204 19.8708 7.6227 21.2397 7.75629 22.3469C7.77276 22.4768 7.79656 22.7623 7.88806 22.8392C8.05579 22.9814 8.22169 22.8948 8.38036 22.8923C8.38137 22.8923 8.38219 22.8931 8.38219 22.8941Z" fill="white"/>
<path d="M21.4131 11.9427C21.3308 11.875 21.1807 11.6279 21.0599 11.5108C20.9044 11.3589 20.6884 11.2235 20.5329 11.0679C20.1687 10.7019 19.6416 9.75572 19.1511 9.66421C18.8821 9.61297 18.776 9.72461 18.7815 9.99363C18.7906 10.4548 19.1438 11.5382 19.3232 11.9958C19.8228 13.2695 20.8733 14.3218 22.308 14.4206C24.3797 14.5634 24.4346 12.629 25.1209 11.2143C25.2417 10.9636 25.8822 10.0687 25.6425 9.83624C25.4027 9.60382 24.9141 9.94422 24.7164 10.1236C24.5774 10.2498 24.1692 10.7989 24.0649 10.8465C23.9277 10.9087 23.7465 10.8465 23.7447 10.6817C23.7447 10.5225 24.2791 9.81245 24.3962 9.60199C24.5664 9.29636 25.0733 8.39413 24.581 8.19282C24.0887 7.99151 23.6715 8.78028 23.4811 9.12982C23.3713 9.3293 23.1389 9.9552 23.0401 10.0613C22.9248 10.1876 22.6759 10.1748 22.6521 9.99546C22.632 9.83258 23.0309 8.96329 23.1078 8.71622C23.2084 8.39413 23.5177 7.5596 23.0877 7.38391C22.2861 7.05633 21.9951 8.81688 21.9274 9.311C21.9109 9.43728 21.9493 9.56356 21.9091 9.69532C21.7886 10.093 21.473 9.45002 21.5011 9.03542C21.5177 8.79057 21.5317 8.54557 21.5248 8.29896C21.5193 8.07386 21.4937 7.62183 21.4369 7.41686C21.2612 6.76534 20.5823 6.91724 20.5127 7.61451C20.4413 8.34288 20.5548 9.60748 20.6335 10.3596C20.6921 10.9142 21.501 11.1429 21.6913 11.6425C21.792 11.9079 21.6035 12.1001 21.4113 11.9408L21.4131 11.9427Z" fill="white"/>
<path d="M3.79803 24.3086C3.79896 24.3086 3.79969 24.3078 3.79963 24.3069C3.74321 23.3595 3.9153 22.4542 4.35791 21.6165C5.10459 20.2092 6.78462 19.3527 5.79271 17.4494C5.49257 16.8747 5.00394 16.4556 4.34876 16.7631C2.17461 17.7861 1.0491 21.7153 0.970409 23.9224C0.956186 24.3207 1.22324 24.4215 1.61245 24.336C2.32542 24.1792 3.09184 24.194 3.79778 24.3086C3.79786 24.3086 3.79795 24.3086 3.79803 24.3086Z" fill="white"/>
<path d="M18.0905 19.5431C18.0905 19.5441 18.0913 19.5448 18.0923 19.5448C20.1026 19.3769 21.9294 18.107 22.8879 16.3593C23.2758 15.6519 22.4982 14.9127 21.7147 14.7206C21.0486 14.5574 20.2842 14.8528 19.8689 15.3985C19.471 15.9214 18.9337 16.3137 18.2625 16.5875C17.8657 16.7489 17.7579 17.0315 17.8748 17.4436C18.0671 18.1211 18.1128 18.8374 18.0905 19.5431Z" fill="white"/>
<path d="M1.49723 28.5857C1.49781 28.5863 1.49881 28.5859 1.49868 28.5851C1.45764 28.3306 1.14878 27.5852 1.31468 27.335C1.33629 27.3024 1.37304 27.2832 1.41061 27.2724C1.75858 27.1719 1.6678 27.6104 1.71136 27.8299C1.78605 28.2021 2.00131 28.7877 2.35715 29.0378C2.62041 29.2228 2.78484 28.8564 2.6081 28.5875C2.50379 28.3771 2.16522 27.4053 2.38666 27.2735C2.46169 27.2296 2.54405 27.2479 2.61176 27.2918C2.73438 27.3705 2.8332 28.0934 2.92105 28.3148C3.04366 28.6223 3.42249 29.142 3.78119 29.153C4.56447 29.1805 3.75008 28.1026 3.63112 27.8061C3.51766 27.5242 3.26145 26.2651 3.88002 26.6696C4.19845 26.8782 4.31741 27.6139 4.94147 27.4858C5.27272 27.4181 5.22148 27.1875 5.14278 26.9386C5.00187 26.4939 4.1527 24.9768 3.77387 24.7553C3.42066 24.5503 2.31529 24.6126 1.89254 24.6803C1.25566 24.7809 0.847552 25.0097 0.708465 25.6758C0.519965 26.5817 0.734086 27.9799 1.49723 28.5857Z" fill="white"/>
<path d="M13.954 27.1753C13.9764 26.8604 13.7382 26.7472 13.4477 26.8709C12.3551 27.3266 10.7904 27.3632 9.67223 26.9752C9.54779 26.9313 9.08111 26.6897 9.02621 26.6916C8.8798 26.6934 8.83771 27.085 8.84503 27.1948C8.90725 28.055 10.3384 28.3094 11.0045 28.3478C11.9311 28.4015 13.8728 28.315 13.954 27.1753Z" fill="#B2E600"/>
<path d="M3.97327 8.85378C3.58346 8.76777 3.38764 9.25457 3.32725 9.56386C3.21379 10.144 3.34372 11.4489 3.5798 11.9942C3.91288 12.7629 4.5827 12.6787 4.65041 11.8149C4.69799 11.2091 4.63577 9.56203 4.26609 9.08803C4.20936 9.01483 4.06295 8.87391 3.97327 8.85378Z" fill="#B2E600"/>
<path d="M12.9394 28.8767C12.939 28.8767 12.9385 28.8768 12.9381 28.877C12.7535 28.9466 12.5981 29.0763 12.4098 29.1439C11.9322 29.3178 10.7133 29.3599 10.2595 29.1329C10.0124 29.0085 9.86234 28.6296 9.60612 29.0835C9.27305 29.671 9.83854 30.0718 10.351 30.2127C11.0025 30.392 12.763 30.436 13.1364 29.746C13.2936 29.4535 13.228 29.0624 12.9415 28.8773C12.9409 28.8769 12.9402 28.8767 12.9394 28.8767Z" fill="#B2E600"/>
<path d="M9.13952 0.821368C8.21716 0.652999 8.04879 1.93406 8.83573 2.09511C9.67391 2.26531 9.92097 0.965945 9.13952 0.821368Z" fill="#B2E600"/>
<path d="M9.01731 8.4529C8.70803 8.40898 8.51221 8.5078 8.32188 8.74571C7.77834 9.43017 8.09129 11.1688 9.10882 11.1084C10.2227 11.0425 10.0917 8.6094 9.01732 8.45316C9.01716 8.45314 9.01715 8.4529 9.01731 8.4529Z" fill="#B2E600"/>
<path d="M13.8226 8.12799C13.8226 8.12849 13.8221 8.12888 13.8216 8.12885C13.1508 8.09146 13.0009 9.15032 13.0466 9.63141C13.0979 10.1914 13.581 11.1284 14.2545 10.6782C14.9771 10.1934 14.789 8.18327 13.8235 8.12713C13.823 8.1271 13.8226 8.12749 13.8226 8.12799Z" fill="#B2E600"/>
<path d="M13.2176 11.963C13.2177 11.963 13.2177 11.9628 13.2176 11.9627C12.9602 11.8848 12.8779 12.0839 12.6951 12.1899C12.1753 12.4882 11.22 12.5541 10.6637 12.3382C10.4715 12.2631 10.1567 11.9593 9.97373 12.2137C9.78157 12.4809 10.3141 12.8048 10.5191 12.8854C11.2383 13.1654 12.8561 13.0373 13.3265 12.3382C13.4215 12.1975 13.3851 12.0149 13.2175 11.9633C13.2174 11.9632 13.2174 11.963 13.2176 11.963Z" fill="#B2E600"/>
<path d="M7.75624 22.3506C7.62264 21.2434 7.52199 19.8745 7.47441 18.7581C7.46525 18.5275 7.45061 18.3006 7.73794 18.2567C8.06552 18.2054 8.60357 18.1834 8.9458 18.1725C9.39234 18.1578 9.43627 18.2017 9.493 18.6391C9.6266 19.6695 9.72176 20.9469 9.77483 21.99C9.78398 22.1529 9.82242 22.669 9.72359 22.766C9.68882 22.7989 9.56071 22.8484 9.50947 22.8557C9.18554 22.8996 8.71887 22.8941 8.38213 22.8996C8.22291 22.9014 8.05821 22.9893 7.88801 22.8465C7.7965 22.7697 7.77088 22.4823 7.75624 22.3542V22.3506ZM7.93976 19.0553C7.94952 19.2578 8.12382 19.4126 8.32604 19.3985L8.74046 19.3696C8.9434 19.3554 9.09489 19.1769 9.07591 18.9744C9.05752 18.778 8.88538 18.6324 8.68865 18.6469L8.27434 18.6773C8.07876 18.6917 7.93031 18.8594 7.93976 19.0553ZM8.04561 20.2525C8.06827 20.4425 8.23233 20.5837 8.42355 20.5778L8.82638 20.5653C9.03753 20.5588 9.20206 20.3799 9.19098 20.169C9.17994 19.9588 8.99887 19.7984 8.7889 19.8129L8.38684 19.8405C8.1762 19.855 8.0206 20.0429 8.04561 20.2525ZM8.1406 21.4024C8.15176 21.6038 8.322 21.7592 8.52355 21.752L8.90833 21.7383C9.119 21.7308 9.28263 21.5521 9.27157 21.3416C9.26051 21.1308 9.07865 20.9702 8.86813 20.9852L8.48408 21.0125C8.28232 21.0269 8.12941 21.2005 8.1406 21.4024ZM8.20557 22.3911C8.20613 22.4133 8.21483 22.4346 8.23002 22.4508C8.24868 22.4708 8.27533 22.4812 8.30258 22.4794L9.12351 22.4226C9.21178 22.4165 9.27368 22.3329 9.25378 22.2467C9.23772 22.1771 9.17301 22.1298 9.10181 22.1357L8.35448 22.197C8.26832 22.2041 8.20267 22.2772 8.20487 22.3636L8.20557 22.3911Z" fill="black"/>
<path d="M8.27446 18.6774C8.07886 18.6918 7.93039 18.8595 7.93983 19.0553C7.9496 19.2578 8.12387 19.4127 8.32607 19.3986L8.74232 19.3695C8.94528 19.3554 9.09679 19.1769 9.07781 18.9744C9.05942 18.778 8.8873 18.6324 8.69059 18.6468L8.27446 18.6774Z" fill="#B2E600"/>
<path d="M8.38577 19.8402C8.17475 19.8547 8.01904 20.0432 8.04462 20.2532C8.06771 20.4428 8.2316 20.5834 8.4225 20.5775L8.82431 20.5651C9.03546 20.5586 9.19997 20.3797 9.1889 20.1688C9.17786 19.9586 8.99678 19.7982 8.78681 19.8126L8.38577 19.8402Z" fill="#B2E600"/>
<path d="M8.48423 21.0125C8.28248 21.0269 8.12958 21.2004 8.14078 21.4024C8.15194 21.6038 8.32219 21.7592 8.52375 21.752L8.90757 21.7384C9.1186 21.7309 9.28236 21.5516 9.27079 21.3407C9.25924 21.1303 9.07752 20.9702 8.86732 20.9852L8.48423 21.0125Z" fill="#B2E600"/>
<path d="M8.35313 22.197C8.26758 22.2041 8.20239 22.2766 8.20457 22.3625L8.20529 22.3907C8.20586 22.4131 8.21481 22.4344 8.23038 22.4505C8.24869 22.4695 8.27441 22.4794 8.30068 22.4776L9.12239 22.4221C9.21028 22.4162 9.27219 22.3333 9.2529 22.2473C9.23721 22.1774 9.17238 22.1297 9.10095 22.1356L8.35313 22.197Z" fill="#B2E600"/>
<path d="M20.9939 4.73031C20.9935 4.73031 20.9934 4.73073 20.9936 4.73097C21.127 4.86362 21.2676 4.77764 21.337 4.62965C21.5396 4.20299 21.6476 3.63006 21.7943 3.10475C21.9186 2.65942 21.7937 1.89406 21.6097 2.31824C21.4688 2.63668 20.9856 4.17579 20.9527 4.48873C20.9454 4.56166 20.9381 4.67272 20.9941 4.72966C20.9944 4.7299 20.9942 4.73031 20.9939 4.73031Z" fill="#B2E600"/>
<path d="M19.0577 2.60662C19.0581 2.60621 19.0579 2.6055 19.0574 2.60532C18.9862 2.5816 18.8736 2.58886 18.8129 2.6413C18.7881 2.66271 18.785 2.69809 18.7903 2.73043L19.1263 4.8C19.1712 4.99705 19.5172 4.96927 19.534 4.76786C19.5353 4.75219 19.5343 4.73708 19.5307 4.72314C19.3788 4.12104 19.3349 3.48416 19.1867 2.88206C19.1666 2.79828 19.1448 2.63656 19.058 2.60795C19.0574 2.60777 19.0572 2.60704 19.0577 2.60662Z" fill="#B2E600"/>
<path d="M23.9443 4.22072C23.9437 4.22128 23.9429 4.22147 23.9422 4.22122C23.8914 4.20417 23.8259 4.20535 23.7701 4.22115C23.7423 4.22903 23.7185 4.24629 23.6972 4.2659C23.3809 4.55754 23.0472 4.84301 22.7392 5.14217C22.6751 5.20439 22.3951 5.46244 22.375 5.50819C22.2945 5.68571 22.5653 5.88153 22.7172 5.72597L23.9891 4.57484C24.084 4.49095 24.0643 4.26347 23.9464 4.22024C23.9457 4.21997 23.9449 4.22016 23.9443 4.22072Z" fill="#B2E600"/>
<path d="M39.0853 15.916C39.4916 16.0807 39.8064 16.3259 40.0315 16.6535C40.2566 16.9811 40.4066 17.3819 40.4872 17.854C40.5658 18.328 40.6061 18.8734 40.6061 19.492C40.6061 20.3539 40.5695 21.0658 40.4963 21.6295C40.4231 22.1932 40.2419 22.6452 39.9509 22.9856C39.6599 23.326 39.2226 23.5676 38.6406 23.714C38.0586 23.8604 37.257 23.9391 36.2377 23.9501H31.1043C30.2906 23.9501 29.631 23.2905 29.631 22.4768C29.6182 22.0029 29.7591 21.6515 30.0501 21.4209C30.3411 21.1903 30.7053 21.075 31.1427 21.075C31.6515 21.075 32.1126 21.0787 32.5262 21.0841C32.938 21.0896 33.3425 21.0933 33.7359 21.0933H34.9456C35.3574 21.0933 35.8186 21.0878 36.3292 21.075C36.4994 21.075 36.6568 21.0658 36.8032 21.0475C36.9496 21.0292 37.0722 20.9743 37.1765 20.8847C37.279 20.7932 37.3614 20.6632 37.4217 20.493C37.4821 20.3228 37.5187 20.0813 37.5316 19.7646C37.5316 19.4865 37.5004 19.2669 37.44 19.1095C37.3797 18.9521 37.2936 18.8368 37.1857 18.7636C37.0777 18.6904 36.9496 18.6446 36.8032 18.6263C36.6568 18.608 36.4939 18.5989 36.3109 18.5989L33.3992 18.5806C32.7312 18.5568 32.1456 18.4799 31.6423 18.3536C31.139 18.2255 30.7236 18.0114 30.396 17.7076C30.0684 17.4038 29.8287 16.9884 29.6768 16.4613C29.5249 15.9343 29.4608 15.2516 29.4865 14.4135C29.5102 13.5643 29.6164 12.8853 29.8049 12.3747C29.9934 11.866 30.2661 11.4707 30.6229 11.1925C30.9798 10.9143 31.4264 10.7258 31.9607 10.6288C32.4951 10.5318 33.1137 10.4824 33.8165 10.4824C34.8724 10.4696 35.9979 10.4641 37.193 10.4641C37.8484 10.4641 38.4828 10.4658 39.0964 10.4694C39.9129 10.4742 40.5695 11.1391 40.5695 11.9556C40.5823 12.4296 40.4414 12.781 40.1504 13.0116C39.8594 13.2422 39.4897 13.3575 39.0395 13.3575H34.0708C33.864 13.3447 33.6792 13.3483 33.5163 13.3666C33.3534 13.3849 33.2162 13.4344 33.1064 13.513C32.9966 13.5917 32.9124 13.707 32.852 13.8589C32.7916 14.0108 32.755 14.2195 32.7422 14.4867C32.7422 14.7667 32.7806 14.9844 32.8611 15.1418C32.9398 15.2992 33.046 15.4182 33.1796 15.4969C33.3132 15.5756 33.4669 15.6213 33.6444 15.6341C33.8201 15.6469 34.005 15.6524 34.1989 15.6524L37.4931 15.689C38.1483 15.6762 38.679 15.7531 39.0853 15.916Z" fill="white"/>
<path d="M51.197 10.4841V11.994C51.197 12.4789 51.0506 12.834 50.7596 13.0591C50.4686 13.2842 50.1045 13.3958 49.6671 13.3958H46.6456C46.0032 13.383 45.5512 13.5074 45.2895 13.7691C45.0278 14.0309 44.8869 14.4701 44.8612 15.0886C44.8484 15.7932 44.8466 16.496 44.8521 17.2006C44.8576 17.9052 44.8612 18.6134 44.8612 19.329C44.8612 19.7773 44.9216 20.1214 45.0424 20.3575C45.1632 20.5936 45.3334 20.7638 45.5512 20.8663C45.769 20.9687 46.0307 21.031 46.3345 21.0474C46.6383 21.0657 46.9841 21.0804 47.3721 21.0932C47.7729 21.0932 48.1334 21.0895 48.4555 21.084C48.7776 21.0785 49.1437 21.0804 49.5573 21.0932C49.9947 21.0932 50.3698 21.1865 50.6864 21.375C51.0012 21.5635 51.1604 21.9186 51.1604 22.4401C51.1604 23.274 50.4844 23.95 49.6506 23.95H45.7909C45.1229 23.9628 44.5446 23.853 44.0523 23.6224C43.56 23.3918 43.1538 23.0697 42.8335 22.6579C42.5114 22.2461 42.2753 21.7685 42.1234 21.2286C41.9715 20.6887 41.8965 20.1159 41.8965 19.5083V14.7409C41.8965 13.4544 42.246 12.4295 42.9433 11.6645C43.6406 10.8996 44.6508 10.5061 45.9739 10.4823H51.1952C51.1962 10.4823 51.197 10.4831 51.197 10.4841Z" fill="white"/>
<path d="M63.6358 16.3442C63.6303 18.2969 63.6321 20.2624 63.6449 22.2408C63.6449 22.7495 63.5388 23.1595 63.3265 23.4688C63.1142 23.778 62.7537 23.9263 62.2431 23.9153C61.298 23.9153 60.5319 23.1492 60.5319 22.2042V20.9671C60.5319 19.6106 59.4323 18.511 58.0759 18.511C56.7259 18.511 55.629 19.6005 55.6199 20.9504L55.6113 22.2225C55.6049 23.1593 54.8437 23.9153 53.907 23.9153C53.3854 23.9153 53.0175 23.7634 52.8053 23.4596C52.593 23.1558 52.4868 22.7495 52.4868 22.2408V12.1955C52.4868 11.2331 53.2723 10.4559 54.2346 10.4659C54.7561 10.4531 55.1258 10.5995 55.3454 10.9033C55.5632 11.2071 55.6675 11.6189 55.6547 12.1405L55.6485 13.3908C55.6418 14.739 56.7329 15.8354 58.0811 15.8354C59.4245 15.8354 60.5136 14.7463 60.5136 13.4029V12.1405C60.5136 11.6317 60.6198 11.2218 60.832 10.9125C61.0443 10.6032 61.4049 10.455 61.9155 10.4659C62.8593 10.4558 63.6318 11.2149 63.635 12.1589C63.6399 13.5604 63.6397 14.9556 63.6358 16.3442Z" fill="white"/>
<path d="M76.6976 19.5432C76.6971 19.5432 76.6967 19.5436 76.6967 19.5441C76.6966 20.1514 76.6216 20.7257 76.4698 21.2653C76.3179 21.807 76.0818 22.281 75.7597 22.6873C75.4376 23.0954 75.0295 23.4157 74.5317 23.6536C74.0339 23.8897 73.452 24.0032 72.784 23.9903H71.6292C71.3437 23.9903 71.0747 23.9867 70.8185 23.9812C70.5641 23.9757 70.2932 23.972 70.0077 23.972H68.8529C68.185 23.9849 67.6066 23.8751 67.1143 23.6445C66.6239 23.4139 66.2158 23.0918 65.8955 22.6782C65.5734 22.2646 65.3373 21.7887 65.1854 21.247C65.0335 20.7072 64.9585 20.1325 64.9585 19.5249V14.7484C64.9585 14.117 65.05 13.5387 65.2312 13.0171C65.4124 12.4955 65.6777 12.0453 66.0236 11.6683C66.3695 11.2913 66.7941 11.0003 67.2974 10.7935C67.8006 10.5867 68.3808 10.4843 69.0359 10.4843H70.8368C71.0545 10.4843 71.2943 10.4879 71.556 10.4934C71.8159 10.4989 72.1709 10.5026 72.6211 10.5026C73.2763 10.5026 73.8546 10.605 74.3597 10.8118C74.863 11.0186 75.2875 11.3096 75.6334 11.6866C75.9793 12.0636 76.2429 12.5138 76.4259 13.0354C76.607 13.5588 76.6985 14.1353 76.6985 14.7667V19.5423C76.6985 19.5428 76.6981 19.5432 76.6976 19.5432ZM71.4013 21.1079C71.4009 21.1088 71.4015 21.1098 71.4025 21.1098C71.7165 21.1097 72.0049 21.0951 72.2642 21.064C72.5259 21.0329 72.7474 20.9615 72.9286 20.8444C73.1097 20.7291 73.2525 20.5534 73.3568 20.3155C73.4593 20.0794 73.5124 19.7592 73.5124 19.3584V15.0924C73.4886 14.472 73.3458 14.0346 73.0841 13.7803C72.8224 13.5259 72.3704 13.4033 71.728 13.4161H71.0728C70.9758 13.4161 70.9008 13.4124 70.8459 13.4069C70.791 13.4014 70.716 13.3978 70.619 13.3978H69.9638C69.3214 13.385 68.8694 13.5076 68.6077 13.762C68.346 14.0163 68.2051 14.4537 68.1795 15.0741C68.1666 15.7915 68.1648 16.5016 68.1703 17.2062C68.1758 17.9108 68.1795 18.6227 68.1795 19.3382C68.1795 19.7281 68.2252 20.0373 68.3167 20.2679C68.4082 20.4985 68.5382 20.676 68.7084 20.7968C68.8786 20.9176 69.0817 21 69.3178 21.0421C69.5539 21.0842 69.8174 21.1061 70.1102 21.1061H71.4002C71.4011 21.1061 71.4018 21.1071 71.4013 21.1079Z" fill="white"/>
<path d="M89.8036 19.5156C89.8031 19.5156 89.8027 19.5161 89.8027 19.5166C89.8026 20.122 89.7276 20.6945 89.5757 21.2323C89.4239 21.7722 89.1878 22.2443 88.8657 22.6506C88.5436 23.0569 88.1355 23.3771 87.6377 23.6132C87.1399 23.8493 86.5579 23.9609 85.8899 23.95H84.7351C84.4497 23.95 84.1806 23.9463 83.9244 23.9408C83.67 23.9353 83.3992 23.9317 83.1137 23.9317H81.9589C81.2909 23.9445 80.7126 23.8347 80.2203 23.6041C79.7298 23.3735 79.3217 23.0532 79.0015 22.6414C78.6794 22.2297 78.4433 21.7538 78.2914 21.214C78.1395 20.6759 78.0645 20.1031 78.0645 19.4973V14.7354C78.0645 14.1059 78.156 13.5294 78.3371 13.0097C78.5183 12.4881 78.7837 12.0397 79.1296 11.6645C79.4755 11.2894 79.9 10.9984 80.4033 10.7916C80.9066 10.5866 81.4867 10.4823 82.1419 10.4823H83.9427C84.1605 10.4823 84.4002 10.486 84.6619 10.4914C84.9218 10.4969 85.2769 10.5006 85.7271 10.5006C86.3822 10.5006 86.9605 10.6031 87.4656 10.8099C87.9689 11.0167 88.3935 11.3077 88.7394 11.6828C89.0853 12.058 89.3488 12.5064 89.5318 13.028C89.713 13.5495 89.8045 14.1242 89.8045 14.7537V19.5147C89.8045 19.5152 89.8041 19.5156 89.8036 19.5156ZM84.5064 21.0785C84.8212 21.0785 85.1103 21.0639 85.3702 21.0328C85.6319 21.0035 85.8533 20.9303 86.0345 20.815C86.2157 20.6997 86.3584 20.524 86.4628 20.2879C86.5652 20.0519 86.6183 19.7334 86.6183 19.3345V15.0813C86.5945 14.4628 86.4518 14.0272 86.1901 13.7728C85.9284 13.5184 85.4763 13.3976 84.834 13.4086H84.1788C84.0818 13.4086 84.0068 13.405 83.9519 13.3995C83.897 13.394 83.8219 13.3903 83.7249 13.3903H83.0698C82.4274 13.3775 81.9754 13.5001 81.7137 13.7545C81.452 14.0089 81.311 14.4445 81.2854 15.063C81.2726 15.7786 81.2708 16.4868 81.2763 17.1896C81.2818 17.8924 81.2854 18.6006 81.2854 19.3162C81.2854 19.7041 81.3312 20.0134 81.4227 20.2422C81.5142 20.4728 81.6441 20.6485 81.8143 20.7693C81.9845 20.89 82.1877 20.9724 82.4237 21.0145C82.6598 21.0566 82.9234 21.0785 83.2162 21.0785H84.5082H84.5064Z" fill="white"/>
<path d="M99.9328 21.3942C99.9327 21.3942 99.9329 21.394 99.933 21.3941C100.236 21.6193 100.388 21.985 100.388 22.495C100.388 23.2996 99.7354 23.9518 98.9309 23.9518H95.5653C95.0071 23.928 94.449 23.8548 93.8908 23.734C93.3326 23.6132 92.8348 23.3771 92.3993 23.0239C92.1449 22.8062 91.9381 22.5591 91.7807 22.2864C91.6233 22.0137 91.5007 21.7246 91.4165 21.4226C91.3323 21.1188 91.2701 20.8077 91.2353 20.4856C91.1987 20.1635 91.1749 19.8451 91.1621 19.5303V12.2154C91.1621 11.2603 91.9364 10.486 92.8916 10.486C93.4003 10.486 93.7627 10.6379 93.975 10.9417C94.1873 11.2455 94.2934 11.6517 94.2934 12.1605C94.2806 13.3006 94.2751 14.4756 94.2751 15.6816V19.2027C94.2751 19.4937 94.3044 19.7938 94.3666 20.1031C94.427 20.4124 94.5844 20.6576 94.8406 20.8406C95.0108 20.9376 95.1865 20.998 95.3677 21.0218C95.5488 21.0456 95.7319 21.0584 95.913 21.0584H98.7149C99.2231 21.0584 99.629 21.1698 99.9327 21.3944C99.9328 21.3945 99.9329 21.3943 99.9328 21.3942Z" fill="white"/>
<path d="M113.673 17.8356C113.673 18.3444 113.676 18.8916 113.682 19.4736C113.687 20.0555 113.691 20.6009 113.691 21.1115C113.678 21.6203 113.654 22.0576 113.618 22.4218C113.581 22.786 113.484 23.0825 113.327 23.3131C113.169 23.5437 112.924 23.7102 112.589 23.8127C112.256 23.9152 111.791 23.9609 111.197 23.95H107.066C106.387 23.9628 105.801 23.853 105.309 23.6224C104.819 23.3918 104.411 23.0697 104.09 22.6579C103.768 22.2461 103.532 21.7685 103.38 21.2286C103.228 20.6887 103.153 20.1159 103.153 19.5083V14.7409C103.153 14.1095 103.245 13.5349 103.426 13.0115C103.607 12.4899 103.873 12.0415 104.218 11.6645C104.564 11.2894 104.989 10.9984 105.492 10.7916C105.995 10.5848 106.576 10.4823 107.231 10.4823H112.181C112.995 10.4823 113.654 11.1419 113.654 11.9555C113.667 12.4295 113.526 12.7809 113.235 13.0115C112.944 13.2421 112.58 13.3574 112.143 13.3574H107.902C107.26 13.3446 106.817 13.4763 106.574 13.749C106.33 14.0217 106.197 14.4682 106.173 15.0868V19.3271C106.173 19.7755 106.23 20.1196 106.345 20.3557C106.46 20.5917 106.623 20.7619 106.837 20.8644C107.05 20.9669 107.304 21.0273 107.602 21.0456C107.899 21.0639 108.243 21.0785 108.631 21.0914H109.54C109.722 21.0914 109.901 21.0877 110.077 21.0822C110.333 21.0742 110.541 20.8649 110.541 20.6081V19.8634C110.541 19.1953 110 18.6537 109.332 18.6537H108.867C108.063 18.6537 107.412 18.0023 107.412 17.1987C107.399 16.69 107.546 16.3276 107.849 16.1153C108.153 15.903 108.565 15.7969 109.086 15.7969H111.652C112.053 15.8097 112.382 15.8372 112.644 15.8792C112.904 15.9213 113.111 16.0128 113.263 16.1519C113.415 16.291 113.521 16.4942 113.581 16.7614C113.642 17.0285 113.673 17.3854 113.673 17.8356Z" fill="white"/>
<path d="M124.686 23.9251C124.687 23.9244 124.687 23.9226 124.685 23.9226C124.443 23.9226 124.189 23.9189 123.916 23.9135C123.643 23.908 123.385 23.9098 123.142 23.9226C122.437 23.9354 121.934 23.8256 121.632 23.595C121.328 23.3644 121.116 22.9819 120.995 22.4494C120.898 22.0248 120.807 21.5911 120.722 21.1482C120.638 20.7053 120.547 20.2716 120.45 19.847C120.34 19.3382 120.173 18.9942 119.95 18.8185C119.725 18.6428 119.388 18.5549 118.94 18.5549C118.636 18.5549 118.29 18.5513 117.902 18.5458C117.514 18.5403 117.119 18.533 116.72 18.5275C116.319 18.522 115.926 18.5183 115.538 18.5183C114.965 18.5183 114.5 18.0537 114.506 17.4807C114.507 17.374 114.508 17.2679 114.509 17.1622C114.518 16.4234 115.117 15.8244 115.856 15.8244H118.967C119.471 15.8244 119.868 15.8116 120.159 15.7878C120.437 15.7403 120.638 15.6067 120.759 15.387C120.88 15.1693 120.947 14.9259 120.958 14.6587C120.982 14.4043 120.953 14.1591 120.867 13.9211C120.783 13.6851 120.618 13.5185 120.375 13.4215C120.131 13.3373 119.871 13.2934 119.591 13.2934H116.187C115.666 13.2934 115.252 13.1873 114.95 12.975C114.646 12.7627 114.502 12.4022 114.513 11.8916C114.513 11.087 115.165 10.4348 115.97 10.4348H116.96C117.366 10.4348 117.778 10.4385 118.197 10.444C118.616 10.4495 119.019 10.4531 119.406 10.4531H120.408C120.845 10.4659 121.28 10.5172 121.718 10.6087C122.155 10.7002 122.545 10.8429 122.891 11.0369C123.237 11.2309 123.519 11.4835 123.736 11.7927C123.954 12.102 124.064 12.4809 124.064 12.9311V15.2242C124.064 15.5042 123.982 15.7586 123.819 15.9892C123.654 16.2197 123.442 16.4174 123.182 16.5803C122.92 16.7431 122.629 16.8749 122.309 16.9719C122.007 17.0629 121.713 17.112 121.429 17.1177C121.397 17.1184 121.372 17.1437 121.372 17.1749C121.372 17.2048 121.395 17.2296 121.425 17.2315C121.614 17.2435 121.799 17.2571 121.981 17.2739C122.181 17.2922 122.373 17.3324 122.554 17.3928C122.735 17.4532 122.896 17.5411 123.037 17.6564C123.176 17.7717 123.283 17.9272 123.356 18.1212C123.489 18.4726 123.623 18.9191 123.757 19.459C123.89 19.9989 124.015 20.5516 124.13 21.1152C124.245 21.6789 124.351 22.217 124.448 22.7257C124.545 23.2333 124.624 23.6335 124.684 23.9243C124.684 23.9252 124.685 23.9257 124.686 23.9251Z" fill="white"/>
<path d="M134.015 10.9016C134.016 10.9016 134.018 10.902 134.02 10.9028C134.359 11.073 134.649 11.3306 134.89 11.6757C135.134 12.0216 135.315 12.3894 135.436 12.7774C136.054 14.6588 136.669 16.52 137.282 18.3647C137.75 19.7731 138.219 21.1911 138.691 22.6204C138.907 23.2766 138.418 23.952 137.727 23.952C137.218 23.952 136.748 23.8458 136.316 23.6335C135.886 23.4212 135.578 23.0296 135.397 22.4605L132.63 13.6156C132.546 13.3612 132.423 13.2404 132.266 13.2514C132.109 13.2642 131.993 13.3905 131.92 13.6339C131.422 15.1254 130.967 16.6133 130.555 18.092C130.143 19.5726 129.687 21.0641 129.19 22.5684C129.032 23.0424 128.743 23.3901 128.326 23.6152C127.907 23.8403 127.449 23.952 126.951 23.952C126.233 23.952 125.725 23.2501 125.949 22.5678C126.377 21.2608 126.802 19.9572 127.224 18.6557C127.795 16.897 128.37 15.1309 128.954 13.3594C129.027 13.116 129.118 12.8671 129.226 12.6127C129.336 12.3583 129.466 12.1149 129.618 11.8843C129.77 11.6537 129.942 11.4415 130.136 11.2475C130.33 11.0535 130.548 10.9016 130.791 10.7918C131.3 10.5612 131.84 10.455 132.411 10.4733C132.981 10.4916 133.512 10.6339 134.009 10.9002C134.011 10.9011 134.013 10.9016 134.015 10.9016Z" fill="white"/>
<path d="M149.663 19.5103C149.661 19.5103 149.66 19.5115 149.66 19.513C149.66 20.1178 149.585 20.6897 149.433 21.2269C149.281 21.765 149.045 22.2389 148.723 22.6434C148.401 23.0497 147.994 23.3699 147.504 23.606C147.013 23.8421 146.433 23.9483 145.765 23.9245C145.304 23.9245 144.816 23.9281 144.301 23.9336C143.785 23.9391 143.264 23.9428 142.737 23.9428H141.214C140.384 23.9428 139.714 23.2646 139.724 22.4348C139.724 22.1804 139.763 21.9663 139.843 21.7906C139.922 21.6149 140.034 21.4721 140.18 21.3642C140.326 21.2562 140.495 21.1793 140.689 21.1372C140.883 21.0951 141.089 21.0732 141.307 21.0732C141.719 21.0604 142.202 21.0585 142.755 21.064C143.308 21.0695 143.789 21.0732 144.202 21.0732C144.578 21.0732 144.918 21.064 145.222 21.0457C145.526 21.0274 145.785 20.9634 146.005 20.8554C146.223 20.7456 146.393 20.5736 146.514 20.3375C146.635 20.1014 146.702 19.7592 146.713 19.3108C146.701 18.608 146.699 17.9071 146.704 17.2044C146.71 16.5016 146.708 15.7934 146.695 15.0796C146.671 14.4739 146.529 14.042 146.267 13.7803C146.005 13.5204 145.553 13.3959 144.911 13.4087C143.685 13.4087 142.691 14.4026 142.691 15.6286V16.5196C142.691 17.8638 141.466 19.2645 140.352 18.5129C139.885 18.1981 139.658 17.6601 139.669 16.8969V12.4113C139.669 11.9996 139.724 11.6665 139.834 11.4121C139.944 11.1577 140.088 10.9619 140.271 10.821C140.453 10.6819 140.665 10.5904 140.908 10.5483C141.103 10.5147 141.308 10.4939 141.525 10.4869C141.635 10.4834 141.746 10.5026 141.856 10.5026H142.566C142.834 10.5026 143.106 10.4989 143.384 10.4934C143.663 10.4879 143.933 10.4843 144.195 10.4843H145.606C146.916 10.508 147.919 10.9052 148.618 11.6738C149.316 12.4425 149.665 13.4691 149.665 14.752V19.5075C149.665 19.509 149.664 19.5103 149.663 19.5103Z" fill="white"/>
<path d="M160.039 15.9277C160.039 15.9264 160.041 15.9255 160.042 15.926C160.447 16.0889 160.761 16.3338 160.986 16.6607C161.211 16.9883 161.361 17.3872 161.441 17.8594C161.52 18.3316 161.56 18.8769 161.56 19.4955C161.56 20.3557 161.524 21.0676 161.45 21.6312C161.377 22.1949 161.196 22.6451 160.905 22.9855C160.614 23.3241 160.177 23.5675 159.595 23.7121C159.013 23.8566 158.211 23.9372 157.192 23.9481H152.057C151.244 23.9481 150.585 23.2894 150.585 22.4767C150.572 22.0046 150.713 21.6532 151.004 21.4226C151.295 21.192 151.659 21.0767 152.097 21.0767C152.606 21.0767 153.067 21.0804 153.48 21.0859C153.892 21.0914 154.297 21.095 154.69 21.095H155.9C156.311 21.095 156.773 21.0895 157.283 21.0767C157.453 21.0767 157.611 21.0676 157.757 21.0493C157.904 21.031 158.026 20.9761 158.131 20.8864C158.233 20.7949 158.315 20.6649 158.376 20.4966C158.436 20.3264 158.473 20.0848 158.486 19.77C158.486 19.4919 158.455 19.2741 158.394 19.1167C158.334 18.9593 158.248 18.844 158.14 18.7708C158.032 18.6976 157.904 18.6518 157.757 18.6354C157.611 18.6171 157.448 18.6079 157.265 18.6079L154.353 18.5896C153.685 18.5658 153.1 18.489 152.596 18.3627C152.093 18.2346 151.678 18.0205 151.35 17.7185C151.023 17.4165 150.783 17.0011 150.631 16.474C150.479 15.947 150.415 15.2662 150.441 14.4298C150.464 13.5825 150.57 12.9035 150.759 12.3948C150.947 11.886 151.22 11.4925 151.577 11.2143C151.934 10.9362 152.38 10.7477 152.915 10.6507C153.449 10.5537 154.068 10.5061 154.771 10.5061C155.827 10.4933 156.952 10.4878 158.147 10.4878C158.803 10.4878 159.438 10.4894 160.052 10.4931C160.868 10.4979 161.524 11.162 161.524 11.9775C161.536 12.4497 161.396 12.801 161.105 13.0316C160.814 13.2622 160.444 13.3775 159.994 13.3775H155.025C154.818 13.3647 154.633 13.3684 154.47 13.3867C154.308 13.405 154.17 13.4525 154.06 13.5312C153.951 13.6099 153.866 13.7252 153.806 13.8771C153.746 14.029 153.709 14.2377 153.696 14.5048C153.696 14.783 153.735 15.0026 153.815 15.1582C153.894 15.3156 154 15.4345 154.134 15.5132C154.267 15.5919 154.421 15.6377 154.599 15.6487C154.774 15.6615 154.959 15.667 155.153 15.667L158.447 15.7036C159.101 15.6908 159.631 15.7673 160.037 15.9295C160.038 15.93 160.039 15.9291 160.039 15.9277Z" fill="white"/>
<path d="M85.3938 16.4594V17.6471C85.3938 17.799 85.3755 17.9399 85.3371 18.0754C85.2987 18.209 85.2401 18.3279 85.1596 18.4286C85.0809 18.5292 84.9784 18.6098 84.854 18.6683C84.7295 18.7269 84.585 18.7543 84.4184 18.7525H84.1311C84.0597 18.7525 83.9938 18.7525 83.9298 18.7507C83.8675 18.7489 83.7998 18.7489 83.7285 18.7489H83.4411C83.2746 18.7525 83.1319 18.7251 83.0074 18.6665C82.8848 18.6098 82.7841 18.5292 82.7036 18.4268C82.6249 18.3243 82.5645 18.2053 82.5279 18.0717C82.4895 17.9363 82.4712 17.7954 82.4712 17.6435V16.4576C82.4712 16.3002 82.4932 16.1574 82.5389 16.0275C82.5828 15.8976 82.6487 15.7859 82.7366 15.6926C82.8226 15.5993 82.9287 15.5261 83.0532 15.4748C83.1776 15.4236 83.3222 15.3979 83.4851 15.3979H83.9334C83.9883 15.3979 84.0469 15.3979 84.1128 15.3998C84.1768 15.4016 84.2665 15.4034 84.3781 15.4034C84.541 15.4034 84.6856 15.4291 84.81 15.4803C84.9363 15.5315 85.0425 15.6047 85.1285 15.6981C85.2145 15.7914 85.2804 15.9031 85.3261 16.033C85.3719 16.1629 85.3938 16.3057 85.3938 16.4631V16.4594Z" fill="#B2E600"/>
<path d="M72.2879 16.4594V17.6471C72.2879 17.799 72.2696 17.9399 72.2312 18.0754C72.1927 18.209 72.1342 18.3279 72.0536 18.4286C71.9749 18.5292 71.8725 18.6098 71.748 18.6683C71.6236 18.7269 71.479 18.7543 71.3125 18.7525H71.0251C70.9538 18.7525 70.8879 18.7525 70.8238 18.7507C70.7616 18.7489 70.6939 18.7489 70.6225 18.7489H70.3352C70.1686 18.7525 70.0259 18.7251 69.9015 18.6665C69.7788 18.6098 69.6782 18.5292 69.5977 18.4268C69.519 18.3243 69.4586 18.2053 69.422 18.0717C69.3835 17.9363 69.3652 17.7954 69.3652 17.6435V16.4576C69.3652 16.3002 69.3872 16.1574 69.4329 16.0275C69.4769 15.8976 69.5428 15.7859 69.6306 15.6926C69.7166 15.5993 69.8228 15.5261 69.9472 15.4748C70.0716 15.4236 70.2162 15.3979 70.3791 15.3979H70.8275C70.8824 15.3979 70.9409 15.3979 71.0068 15.3998C71.0709 15.4016 71.1606 15.4034 71.2722 15.4034C71.4351 15.4034 71.5796 15.4291 71.7041 15.4803C71.8304 15.5315 71.9365 15.6047 72.0225 15.6981C72.1085 15.7914 72.1744 15.9031 72.2202 16.033C72.2659 16.1629 72.2879 16.3057 72.2879 16.4631V16.4594Z" fill="#B2E600"/>
<path d="M137.42 11.6957C137.419 11.6968 137.419 11.6985 137.42 11.6997C137.443 11.733 137.496 11.7485 137.532 11.8183C137.594 11.9373 137.559 12.0361 137.587 12.1093C137.592 12.124 137.731 12.2759 137.761 12.3216C137.921 12.5743 137.995 12.9045 138.071 13.2167C138.081 13.2566 138.083 13.3006 138.051 13.3257C138.009 13.3581 137.94 13.3852 137.9 13.3906C137.885 13.3926 137.873 13.382 137.868 13.3678C137.852 13.3202 137.782 13.33 137.779 13.3802L137.779 13.386C137.778 13.4061 137.764 13.4233 137.745 13.4286L137.685 13.4452C137.677 13.4472 137.67 13.4425 137.668 13.435C137.665 13.4192 137.642 13.4216 137.642 13.4377V13.4541C137.642 13.4624 137.635 13.4692 137.627 13.4697C137.611 13.4706 137.595 13.471 137.581 13.4599C137.574 13.4541 137.569 13.4444 137.566 13.4334C137.555 13.3956 137.537 13.4035 137.537 13.443V13.4636C137.537 13.478 137.529 13.4908 137.515 13.4961L137.509 13.4987C137.492 13.5052 137.474 13.4953 137.47 13.4779L137.468 13.4682C137.461 13.436 137.414 13.4406 137.413 13.4736C137.413 13.4823 137.409 13.4905 137.402 13.4953C137.354 13.5273 137.303 13.541 137.249 13.5304C137.242 13.5289 137.236 13.5232 137.233 13.5159C137.224 13.4901 137.186 13.4993 137.188 13.5266C137.189 13.5399 137.178 13.5514 137.165 13.5514C137.153 13.5514 137.143 13.5424 137.142 13.5305C137.11 13.1906 137.072 12.8495 137.126 12.5151C137.143 12.4146 137.116 12.3228 137.078 12.2283C137.029 12.1093 137.027 11.9995 137.071 11.8769C137.093 11.8147 137.142 11.7708 137.153 11.7415C137.173 11.6792 137.041 11.2693 137.012 11.1796C136.881 10.7867 136.704 10.4129 136.595 10.0079C136.511 9.6937 136.133 9.48765 135.856 9.65805C135.601 9.81498 135.259 9.65236 135.135 9.37975C134.938 8.94697 134.613 8.59925 134.296 8.36495C133.077 7.4682 131.158 7.51212 130.008 8.59554C129.986 8.61684 129.963 8.63891 129.941 8.66172C129.451 9.15964 128.576 9.56813 127.979 9.2054C127.92 9.16983 127.86 9.13134 127.826 9.07196C127.708 8.86615 128.021 8.73492 128.153 8.64861C129.414 7.83422 130.739 6.97225 132.02 6.23106C132.208 6.12308 132.252 6.06086 132.461 6.17067C132.711 6.3006 132.993 6.50374 133.244 6.65747C134.255 7.28268 135.263 7.92303 136.269 8.56181C136.576 8.75651 136.749 9.03074 136.771 9.39346C136.805 10.0523 137.131 10.5977 137.305 11.1924C137.33 11.2783 137.404 11.653 137.421 11.6918C137.422 11.6932 137.421 11.6946 137.42 11.6957Z" fill="white"/>
<path d="M135.143 11.6814C135.142 11.6821 135.141 11.682 135.14 11.6812C134.65 10.9447 133.929 10.5279 133.216 10.3505C131.979 10.043 130.348 10.3377 129.466 11.648C129.446 11.6799 129.421 11.6581 129.426 11.6206C129.431 11.5842 129.44 11.5482 129.441 11.5108C129.454 11.0587 129.43 10.5793 129.455 10.1272C129.519 8.9889 130.742 8.28615 131.454 8.11229C132.609 7.83155 134.396 8.12082 135.004 9.66897C135.09 9.88932 135.114 10.1278 135.119 10.3645L135.143 11.6803C135.143 11.6807 135.143 11.6811 135.143 11.6814Z" fill="white"/>
</svg>
