<?xml version="1.0" encoding="UTF-8"?>
<svg id="Layer_2" data-name="Layer 2" xmlns="http://www.w3.org/2000/svg" viewBox="0 0 125.22 50.43">
  <defs>
    <style>
      .cls-1 {
        fill: #004080;
      }

      .cls-2 {
        fill: #001f3f;
      }

      .cls-3 {
        fill: #b2e600;
      }
    </style>
  </defs>
  <g id="Layer_1-2" data-name="Layer 1">
    <g>
      <path class="cls-2" d="M14.85.02c1.24.18,1.74,1.62,1.05,2.62-.19.27-.45.37-.64.62l.26,2.17c2-.13,4.02-.11,5.95.46,2.62.77,4.74,2.4,5.94,4.87.16.33.27.8.44,1.1.22.37.53.47.72.96.45,1.2.7,4.13.2,5.3-.1.24-.28.42-.37.64-.17.48-.22,1.08-.42,1.59-.91,2.35-3.6,3.51-5.96,3.77l-.06.44c1.87.15,4.49,0,6.01,1.28.15.13.31.4.41.46.5.32,1.81-.31,2.29-.59,1.18-.69,2.13-2.03,2.36-3.39-1.15-.99-1.75-2.26-2.22-3.68-.27-.82-.87-2.83-.44-3.57.65-1.12,2.24.04,2.81.7,0-1.29-.26-2.7-.13-3.99.25-2.29,2.91-1.91,2.95.16.16.04.11-.03.15-.09.29-.43.49-.8,1.02-.99,1.23-.44,2.06.57,1.92,1.75.51-.49,1.29-.68,1.9-.26.85.58.48,1.85.11,2.61,1.1-.48,2.05.02,1.87,1.3-.08.56-1,1.97-1.28,2.61-.52,1.18-.81,2.61-1.6,3.64-.14.18-.42.36-.52.55-.18.36-.25,1.07-.38,1.5-1.37,4.38-4.86,7.34-9.44,7.96-.16.05-.24.18-.26.34-.12.72-.15,1.47-.29,2.19-.67,3.35-2.46,6.98-5.96,8.05.87,1.59-.08,3.04-1.61,3.63.69.64.94,1.61.39,2.44-1.13,1.69-6.09,1.68-7.1-.13-.45-.81-.17-1.77.52-2.34-1.45-.63-2.32-1.93-1.55-3.49-.02-.07-.99-.5-1.16-.59-2.71-1.53-4.53-4.96-4.55-8.04-.16-.04-.11.04-.15.09-.91,1.06-1.53,2.99-1.46,4.38s.7,1.86,1.33,2.97c.36.64,1.09,1.96,1.02,2.67-.08.83-1.15,1.11-1.85.91-.37-.1-.58-.4-.9-.54.34.86,1.69,2.57.36,3.21-.75.37-.93-.09-1.4-.06-.41.03-.66.28-1.27.19-.53-.07-.75-.44-1.12-.63-.32-.16-.67-.2-1.04-.44-1.58-1.05-1.97-4.13-1.53-5.83.08-.29.31-.66.35-.93.12-.76,0-1.83.07-2.68.49-5.42,3.05-11.27,8.8-12.63.33-.08,1.9-.3,2.02-.4.1-.09.11-.53,0-.61-.07-.05-.57-.1-.73-.15-1.36-.39-2.89-1.22-3.73-2.38-.14-.19-.46-.85-.53-.92-.13-.13-.65-.19-.96-.48-1.09-1.06-1.48-5.36-.47-6.52.13-.15.54-.39.56-.42.1-.16.3-1.38.43-1.75,1.27-3.51,4.96-5.76,8.58-6.03l-.21-2.28c-2.34-.33-1.87-3.69.49-3.35ZM14.27,2.75c1.39.28,1.81-1.88.51-2.12-1.53-.28-1.82,1.85-.51,2.12ZM7.21,11.63c-.36,1.33-.09,1.24.38,2.3.75,1.72.91,4.43.43,6.22-.08.31-.29.48-.23.83.09.62,1.43,1.63,1.97,1.93,2.25,1.25,6.06.96,8.61.79,5.56-.36,9.63-1.04,9.37-7.62-.22-5.57-2.76-9.35-8.65-9.75-4.03-.28-10.6.65-11.87,5.29ZM34.61,18.41c-.26-.25-.62-.48-.88-.74-.61-.61-1.48-2.18-2.3-2.34-.45-.08-.62.1-.61.55.02.77.6,2.57.9,3.33.83,2.12,2.58,3.87,4.97,4.03,3.45.24,3.54-2.98,4.68-5.33.2-.42,1.27-1.91.87-2.29s-1.21.18-1.54.48c-.23.21-.91,1.12-1.08,1.2-.23.1-.53,0-.53-.27s.89-1.45,1.08-1.8c.28-.51,1.13-2.01.31-2.34s-1.51.98-1.83,1.56c-.18.33-.57,1.37-.73,1.55-.19.21-.61.19-.64-.11-.03-.27.63-1.72.76-2.13.17-.54.68-1.92-.03-2.22-1.33-.54-1.82,2.38-1.93,3.21-.03.21.04.42-.03.64-.12.4-.69.34-.74-.06.02-.75.12-1.51.1-2.26,0-.38-.05-1.12-.14-1.47-.29-1.08-1.42-.83-1.54.33s.07,3.31.2,4.57c.1.92,1.44,1.3,1.76,2.13.17.44-.15.76-.46.5-.14-.11-.39-.52-.59-.72ZM5.11,15.17c-.19.96.03,3.13.42,4.04.55,1.28,1.67,1.14,1.78-.3.08-1.01-.02-3.75-.64-4.54-.09-.12-.34-.36-.49-.39-.65-.14-.97.67-1.07,1.18ZM38.67,23.64c-1.71.6-3.54.14-5.04-.78-.58,1.93-1.82,3.23-3.67,3.98-.18.07-.99.27-1.02.39.64,1.42.78,2.99.73,4.53,4.36-.36,8.19-3.84,9-8.13ZM18.02,25.73c-2.27.1-5.03.13-7.23.56-.44.09-.83.19-1.16.52-.1.2.29.62.38.83.87,1.87.41,3.41.26,5.32-.41,4.95,1.87,9.49,7.16,10.1,3.09.35,6.62-.29,8.72-2.74s3.26-8.2,2.58-11.37c-.58-2.7-2.13-3.16-4.68-3.31-2.01-.12-4.03.02-6.02.11ZM6.83,35.22c1.24-2.34,4.04-3.76,2.39-6.93-.5-.96-1.31-1.65-2.4-1.14-3.62,1.7-5.49,8.24-5.62,11.91,0,.17-.05.96.1.97,1.43-.55,3.1-.58,4.6-.33-.1-1.58.19-3.08.93-4.48ZM1.83,44.66c.69-.27.52.51.59.9.18.91.87,2.59,2.06,2.13l-.57-.87c-.17-.35-.74-1.97-.37-2.19.12-.07.26-.04.38.03.2.13.37,1.33.51,1.7.21.51.83,1.38,1.43,1.4,1.3.04-.05-1.75-.25-2.24-.19-.47-.61-2.56.41-1.89.53.35.73,1.57,1.77,1.36.55-.11.47-.5.34-.91-.23-.74-1.65-3.26-2.28-3.63-.59-.34-2.43-.24-3.13-.13-1.06.17-1.74.55-1.97,1.66-.31,1.51.04,3.83,1.31,4.84-.07-.45-.66-1.84-.24-2.15ZM21.95,43.96c-1.82.76-4.42.82-6.28.17-.21-.07-.98-.47-1.07-.47-.24,0-.31.65-.3.84.1,1.43,2.48,1.85,3.59,1.92,1.74.1,5.61-.1,4.8-2.75-.12-.09-.57.23-.74.29ZM20.22,47.74c-.8.29-2.82.36-3.58-.02-.41-.21-.66-.84-1.09-.08-.55.98.39,1.64,1.24,1.88,1.08.3,4.01.37,4.63-.78.26-.49.15-1.14-.33-1.45-.31.12-.57.33-.88.44Z"/>
      <g>
        <path class="cls-1" d="M27.72,16.09c.26,6.58-3.81,7.26-9.37,7.62-2.54.16-6.35.45-8.61-.79-.54-.3-1.88-1.31-1.97-1.93-.05-.35.15-.52.23-.83.49-1.79.32-4.51-.43-6.22-.47-1.07-.74-.98-.38-2.3,1.27-4.63,7.83-5.56,11.87-5.29,5.89.4,8.43,4.18,8.65,9.75ZM21.28,15.28c.09.93.89,2.49,2.01,1.74,1.2-.81.89-4.15-.72-4.24-1.12-.06-1.37,1.7-1.29,2.5ZM13.42,13.81c-.91,1.14-.38,4.03,1.31,3.93,1.85-.11,1.63-4.16-.15-4.42-.51-.07-.84.09-1.16.49ZM20.69,19.54c-.86.5-2.45.6-3.38.25-.32-.12-.84-.63-1.15-.21s.57.98.91,1.12c1.2.46,3.89.25,4.67-.91.16-.24.1-.54-.18-.62-.43-.13-.57.2-.87.38Z"/>
        <path class="cls-1" d="M28.72,28.92c.68,3.18-.42,8.86-2.58,11.37s-5.63,3.1-8.72,2.74c-5.29-.6-7.57-5.15-7.16-10.1.16-1.91.61-3.45-.26-5.32-.09-.2-.49-.63-.38-.83.34-.33.72-.43,1.16-.52,2.21-.43,4.97-.45,7.23-.56,1.99-.09,4.02-.23,6.02-.11,2.55.15,4.1.61,4.68,3.31ZM13.52,37.34c.56,0,1.34,0,1.87-.07.08-.01.3-.09.35-.15.16-.16.1-1.02.09-1.29-.09-1.73-.25-3.86-.47-5.57-.09-.73-.17-.8-.91-.78-.57.02-1.46.06-2.01.14-.48.07-.46.45-.44.84.08,1.86.25,4.13.47,5.98.03.22.07.69.22.82.28.24.56.09.82.09Z"/>
        <path class="cls-1" d="M35.2,19.12c-.14-.11-.39-.52-.59-.72-.26-.25-.62-.48-.88-.74-.61-.61-1.48-2.18-2.3-2.34-.45-.08-.62.1-.61.55.02.77.6,2.57.9,3.33.83,2.12,2.58,3.87,4.97,4.03,3.45.24,3.54-2.98,4.68-5.33.2-.42,1.27-1.91.87-2.29s-1.21.18-1.54.48c-.23.21-.91,1.12-1.08,1.2-.23.1-.53,0-.53-.27s.89-1.45,1.08-1.8c.28-.51,1.13-2.01.31-2.34s-1.51.98-1.83,1.56c-.18.33-.57,1.37-.73,1.55-.19.21-.61.19-.64-.11-.03-.27.63-1.72.76-2.13.17-.54.68-1.92-.03-2.22-1.33-.54-1.82,2.38-1.93,3.21-.03.21.04.42-.03.64-.12.4-.69.34-.74-.06.02-.75.12-1.51.1-2.26,0-.38-.05-1.12-.14-1.47-.29-1.08-1.42-.83-1.54.33s.07,3.31.2,4.57c.1.92,1.44,1.3,1.76,2.13.17.44-.15.76-.46.5Z"/>
        <path class="cls-1" d="M5.9,39.69c-.1-1.58.19-3.08.93-4.48,1.24-2.34,4.04-3.76,2.39-6.93-.5-.96-1.31-1.65-2.4-1.14-3.62,1.7-5.49,8.24-5.62,11.91,0,.17-.05.96.1.97,1.43-.55,3.1-.58,4.6-.33Z"/>
        <path class="cls-1" d="M29.67,31.77c4.36-.36,8.19-3.84,9-8.13-1.71.6-3.54.14-5.04-.78-.58,1.93-1.82,3.23-3.67,3.98-.18.07-.99.27-1.02.39.64,1.42.78,2.99.73,4.53Z"/>
        <path class="cls-1" d="M2.07,46.81c-.07-.45-.66-1.84-.24-2.15.69-.27.52.51.59.9.18.91.87,2.59,2.06,2.13l-.57-.87c-.17-.35-.74-1.97-.37-2.19.12-.07.26-.04.38.03.2.13.37,1.33.51,1.7.21.51.83,1.38,1.43,1.4,1.3.04-.05-1.75-.25-2.24-.19-.47-.61-2.56.41-1.89.53.35.73,1.57,1.77,1.36.55-.11.47-.5.34-.91-.23-.74-1.65-3.26-2.28-3.63-.59-.34-2.43-.24-3.13-.13-1.06.17-1.74.55-1.97,1.66-.31,1.51.04,3.83,1.31,4.84Z"/>
      </g>
      <path class="cls-3" d="M22.68,43.66c-.12-.09-.57.23-.74.29-1.82.76-4.42.82-6.28.17-.21-.07-.98-.47-1.07-.47-.24,0-.31.65-.3.84.1,1.43,2.48,1.85,3.59,1.92,1.74.1,5.61-.1,4.8-2.75Z"/>
      <path class="cls-3" d="M21.1,47.29c-.31.12-.57.33-.88.44-.8.29-2.82.36-3.58-.02-.41-.21-.66-.84-1.09-.08-.55.98.39,1.64,1.24,1.88,1.08.3,4.01.37,4.63-.78.26-.49.15-1.14-.33-1.45Z"/>
      <path class="cls-3" d="M14.78.63c-1.53-.28-1.82,1.85-.51,2.12,1.39.28,1.81-1.88.51-2.12Z"/>
      <path class="cls-3" d="M14.58,13.32c-.51-.07-.84.09-1.16.49-.91,1.14-.38,4.03,1.31,3.93,1.85-.11,1.63-4.16-.15-4.42Z"/>
      <path class="cls-3" d="M22.57,12.78c-1.12-.06-1.37,1.7-1.29,2.5.09.93.89,2.49,2.01,1.74,1.2-.81.89-4.15-.72-4.24Z"/>
      <path class="cls-3" d="M21.56,19.16c-.43-.13-.57.2-.87.38-.86.5-2.45.6-3.38.25-.32-.12-.84-.63-1.15-.21s.57.98.91,1.12c1.2.46,3.89.25,4.67-.91.16-.24.1-.54-.18-.62Z"/>
      <path d="M12.48,36.44c-.22-1.84-.39-4.12-.47-5.98-.02-.38-.04-.76.44-.84.55-.08,1.44-.12,2.01-.14.74-.02.81.05.91.78.22,1.71.38,3.84.47,5.57.01.27.08,1.13-.09,1.29-.06.05-.27.14-.35.15-.54.07-1.32.06-1.87.07-.26,0-.54.15-.82-.09-.15-.13-.19-.6-.22-.82ZM12.81,31.57l1.92-.13-.11-1.2-1.86.14.06,1.2ZM13.03,33.51l1.87-.06-.07-1.28-1.95.13.14,1.2ZM13.15,35.46l1.88-.07-.07-1.28-1.88.14.07,1.21ZM13.23,36.56l.09.09,1.72-.12-.11-.47-1.7.14v.36Z"/>
      <polygon class="cls-3" points="12.76 30.37 12.81 31.57 14.73 31.44 14.62 30.23 12.76 30.37"/>
      <polygon class="cls-3" points="12.88 32.31 13.03 33.51 14.9 33.45 14.83 32.17 12.88 32.31"/>
      <polygon class="cls-3" points="13.08 34.26 13.15 35.46 15.03 35.4 14.96 34.12 13.08 34.26"/>
      <polygon class="cls-3" points="13.22 36.2 13.23 36.56 13.32 36.66 15.03 36.54 14.92 36.06 13.22 36.2"/>
      <path class="cls-3" d="M34.5,7.13c.22.22.46.08.57-.17.49-1.03.65-2.56,1.14-3.63.08-.48-.47-.72-.69-.22-.23.53-1.04,3.09-1.09,3.61-.01.12-.02.31.07.4Z"/>
      <path class="cls-3" d="M31.28,3.6c-.14-.05-.39-.02-.46.12l.57,3.52c.04.17.2.27.37.3.17,0,.35-.27.3-.43-.25-1-.32-2.06-.57-3.06-.03-.14-.07-.41-.21-.46Z"/>
      <path class="cls-3" d="M39.4,6.28c-.11-.04-.25-.02-.36.02-.54.5-1.12.99-1.65,1.51-.11.1-.57.53-.6.61-.13.3.32.62.57.36l2.11-1.91c.16-.14.13-.52-.07-.59Z"/>
    </g>
    <g>
      <path class="cls-2" d="M61.31,13.98c.42.17.75.42.98.76.23.34.39.75.47,1.24.08.49.12,1.05.12,1.69,0,.89-.04,1.63-.11,2.21-.08.58-.26,1.05-.56,1.4-.3.35-.75.6-1.35.75-.6.15-1.43.23-2.48.24h-6.83v-1.52c-.01-.49.13-.85.43-1.09.3-.24.68-.36,1.13-.36.53,0,1,0,1.43,0,.43,0,.84,0,1.25,0h1.25c.43,0,.9,0,1.43-.02.18,0,.34,0,.49-.03.15-.02.28-.08.39-.17.11-.09.19-.23.25-.4.06-.18.1-.43.11-.75,0-.29-.03-.51-.09-.68-.06-.16-.15-.28-.26-.36s-.24-.12-.39-.14c-.15-.02-.32-.03-.51-.03l-3.01-.02c-.69-.02-1.29-.1-1.81-.24-.52-.13-.95-.35-1.29-.67-.34-.31-.59-.74-.74-1.29s-.22-1.25-.2-2.12c.03-.88.13-1.58.33-2.11.19-.53.48-.93.85-1.22.37-.29.83-.48,1.38-.58.55-.1,1.19-.15,1.92-.15,1.09-.01,2.25-.02,3.49-.02s2.4,0,3.49.02v1.52c.01.49-.13.85-.43,1.09-.3.24-.68.36-1.15.36h-5.13c-.21-.01-.4,0-.57,0-.17.02-.31.07-.42.15-.11.08-.2.2-.26.36-.06.16-.1.37-.11.65,0,.29.04.51.12.68.08.16.19.29.33.37.14.08.3.13.48.14.18.01.37.02.57.02l3.4.04c.68-.01,1.23.07,1.65.24Z"/>
      <path class="cls-2" d="M73.82,8.37v1.56c0,.5-.15.87-.45,1.1-.3.23-.68.35-1.13.35h-3.12c-.66-.01-1.13.12-1.4.39-.27.27-.42.72-.44,1.36-.01.73-.02,1.45,0,2.18,0,.73,0,1.46,0,2.2,0,.46.06.82.19,1.06.13.24.3.42.53.53.23.11.5.17.81.19.31.02.67.03,1.07.05.41,0,.79,0,1.12,0,.33,0,.71,0,1.14,0,.45,0,.84.1,1.17.29.33.19.49.56.49,1.1v1.56h-5.55c-.69.01-1.29-.1-1.8-.34-.51-.24-.93-.57-1.26-1-.33-.43-.58-.92-.73-1.48-.16-.56-.24-1.15-.24-1.78v-4.93c0-1.33.36-2.39,1.08-3.18.72-.79,1.76-1.2,3.13-1.22h5.4Z"/>
      <path class="cls-2" d="M86.68,14.43c0,2.02,0,4.05,0,6.09,0,.53-.11.95-.33,1.27-.22.32-.59.47-1.12.46h-1.77v-5.59h-5.06l-.04,5.59h-1.75c-.54,0-.92-.16-1.14-.47-.22-.31-.33-.73-.33-1.26v-12.19l1.81.02c.54-.01.92.14,1.15.45.23.31.33.74.32,1.28l-.02,3.82h5.04v-3.82c0-.53.11-.95.33-1.27.22-.32.59-.47,1.12-.46l1.77-.02c.01,2.04.02,4.08,0,6.09Z"/>
      <path class="cls-2" d="M100.18,17.56c0,.63-.08,1.22-.24,1.78-.16.56-.4,1.05-.73,1.47-.33.42-.76.75-1.27,1-.51.24-1.12.36-1.81.35h-1.19c-.29,0-.57,0-.84,0-.26,0-.54,0-.84,0h-1.19c-.69.01-1.29-.1-1.8-.34-.51-.24-.93-.57-1.26-1-.33-.43-.58-.92-.73-1.48-.16-.56-.24-1.15-.24-1.78v-4.93c0-.65.09-1.25.28-1.79.19-.54.46-1,.82-1.39.36-.39.8-.69,1.32-.9.52-.21,1.12-.32,1.8-.32h1.86c.23,0,.47,0,.74,0,.27,0,.64,0,1.1,0,.68,0,1.28.11,1.8.32.52.21.96.51,1.32.9.36.39.63.85.82,1.39.19.54.28,1.13.28,1.79v4.93ZM94.7,19.18c.33,0,.62-.02.89-.05.27-.03.5-.11.69-.23.19-.12.34-.3.44-.55.11-.24.16-.57.16-.99v-4.4c-.03-.64-.17-1.09-.44-1.35-.27-.26-.74-.39-1.4-.38h-.68c-.1,0-.18,0-.24,0-.06,0-.13,0-.24,0h-.68c-.66-.01-1.13.11-1.4.38-.27.26-.42.71-.44,1.35-.01.74-.02,1.47,0,2.2,0,.73,0,1.46,0,2.2,0,.4.05.72.14.96.09.24.23.42.4.55.18.13.39.21.63.25.24.04.52.07.82.07h1.34Z"/>
      <path class="cls-2" d="M113.72,17.56c0,.63-.08,1.22-.24,1.78-.16.56-.4,1.05-.73,1.47-.33.42-.76.75-1.27,1-.51.24-1.12.36-1.81.35h-1.19c-.29,0-.57,0-.84,0-.26,0-.54,0-.84,0h-1.19c-.69.01-1.29-.1-1.8-.34-.51-.24-.93-.57-1.26-1-.33-.43-.58-.92-.73-1.48-.16-.56-.24-1.15-.24-1.78v-4.93c0-.65.09-1.25.28-1.79.19-.54.46-1,.82-1.39.36-.39.8-.69,1.32-.9.52-.21,1.12-.32,1.8-.32h1.86c.23,0,.47,0,.74,0,.27,0,.64,0,1.1,0,.68,0,1.28.11,1.8.32.52.21.96.51,1.32.9.36.39.63.85.82,1.39.19.54.28,1.13.28,1.79v4.93ZM108.25,19.18c.33,0,.62-.02.89-.05.27-.03.5-.11.69-.23.19-.12.34-.3.44-.55.11-.24.16-.57.16-.99v-4.4c-.03-.64-.17-1.09-.44-1.35-.27-.26-.74-.39-1.4-.38h-.68c-.1,0-.18,0-.24,0-.06,0-.13,0-.24,0h-.68c-.66-.01-1.13.11-1.4.38-.27.26-.42.71-.44,1.35-.01.74-.02,1.47,0,2.2,0,.73,0,1.46,0,2.2,0,.4.05.72.14.96.09.24.23.42.4.55.18.13.39.21.63.25.24.04.52.07.82.07h1.34Z"/>
      <path class="cls-2" d="M124.19,19.64c.31.23.47.61.47,1.14v1.5h-4.98c-.58-.02-1.15-.1-1.73-.23-.58-.13-1.09-.37-1.54-.73-.26-.23-.48-.48-.64-.76-.16-.28-.29-.58-.38-.89-.09-.31-.15-.64-.19-.97-.04-.33-.06-.66-.08-.99v-9.35h1.79c.53,0,.9.16,1.12.47.22.31.33.73.33,1.26-.01,1.18-.02,2.39-.02,3.64v3.64c0,.3.03.61.09.93.06.32.23.57.49.76.18.1.36.16.55.19.19.03.38.04.56.04h2.9c.53,0,.95.12,1.26.35Z"/>
      <path class="cls-2" d="M62.33,35.61c0,.53,0,1.09,0,1.69,0,.6,0,1.17,0,1.69-.01.53-.04.98-.08,1.35-.04.38-.14.68-.3.92-.16.24-.42.41-.76.52-.34.11-.82.15-1.44.14h-4.27c-.7.01-1.31-.1-1.81-.34-.51-.24-.93-.57-1.26-1-.33-.43-.58-.92-.73-1.48-.16-.56-.24-1.15-.24-1.78v-4.93c0-.65.09-1.25.28-1.79.19-.54.46-1,.82-1.39.36-.39.8-.69,1.32-.9.52-.21,1.12-.32,1.8-.32h6.64v1.52c.01.49-.13.85-.43,1.09-.3.24-.68.36-1.13.36h-4.38c-.66-.01-1.12.12-1.37.4-.25.28-.39.74-.41,1.38v4.38c0,.46.06.82.18,1.06.12.24.29.42.51.53.22.11.48.17.79.19.31.02.66.03,1.06.05h.94c.19,0,.37,0,.55,0,.18,0,.34,0,.48,0v-2.5h-3.23v-1.5c-.01-.53.14-.9.45-1.12.31-.22.74-.33,1.28-.33h2.65c.41.01.76.04,1.03.08.27.04.48.14.64.28.16.14.27.35.33.63.06.28.09.65.09,1.11Z"/>
      <path class="cls-2" d="M77.81,42.46c-.25,0-.52,0-.8,0-.28,0-.55,0-.8,0-.73.01-1.25-.1-1.56-.34-.31-.24-.53-.63-.66-1.18-.1-.44-.19-.89-.28-1.34-.09-.46-.18-.91-.28-1.34-.11-.53-.29-.88-.52-1.06-.23-.18-.58-.27-1.04-.27-.31,0-.67,0-1.07,0-.4,0-.81-.01-1.22-.02-.41,0-.82,0-1.22,0h-1.07c0-.48,0-.94,0-1.4,0-.46,0-.92,0-1.38h4.6c.52,0,.93-.01,1.23-.04.29-.05.5-.19.62-.41.13-.23.19-.48.21-.75.02-.26,0-.52-.09-.76-.09-.24-.26-.42-.51-.52-.25-.09-.52-.13-.81-.13h-3.52c-.54,0-.97-.11-1.28-.33-.31-.22-.46-.59-.45-1.12v-1.5h2.53c.42,0,.85,0,1.28,0,.43,0,.85,0,1.25,0h1.03c.45.01.9.07,1.35.16.45.09.86.24,1.21.44.36.2.65.46.87.78.23.32.34.71.34,1.18v2.37c0,.29-.08.55-.25.79-.17.24-.39.44-.66.61-.27.17-.57.3-.9.4-.33.1-.66.15-.97.15v.11c.21.01.42.03.63.05.21.02.4.06.59.12.19.06.35.15.5.27.14.12.25.28.33.48.14.36.28.82.41,1.38.14.56.27,1.13.39,1.71.12.58.23,1.14.33,1.66.1.53.18.94.24,1.24Z"/>
      <path class="cls-2" d="M89.95,28.38c.35.18.65.44.9.8.25.36.44.74.56,1.14.64,1.94,1.28,3.87,1.91,5.77.63,1.91,1.27,3.83,1.91,5.77h-1.45c-.53,0-1.01-.11-1.46-.33-.45-.22-.76-.62-.95-1.21l-2.86-9.14c-.09-.26-.21-.39-.38-.38-.16.01-.28.14-.36.39-.51,1.54-.98,3.08-1.41,4.61-.43,1.53-.9,3.07-1.41,4.63-.16.49-.46.85-.89,1.08-.43.23-.91.35-1.42.35h-1.5c.6-1.83,1.2-3.65,1.79-5.47.59-1.82,1.18-3.64,1.79-5.47.08-.25.17-.51.28-.77s.25-.51.4-.75c.16-.24.34-.46.54-.66s.43-.36.68-.47c.53-.24,1.08-.35,1.67-.33.59.02,1.14.17,1.66.44Z"/>
      <path class="cls-2" d="M108.99,37.34c0,.63-.08,1.22-.24,1.78-.16.56-.4,1.05-.73,1.47-.33.42-.75.75-1.26,1-.51.24-1.11.35-1.8.33-.48,0-.98,0-1.51,0-.53,0-1.07,0-1.62,0h-3.13l.02-1.56c0-.26.04-.49.12-.67.08-.18.2-.33.35-.44s.33-.19.53-.24c.2-.04.41-.07.64-.07.43-.01.92-.02,1.5,0,.57,0,1.07,0,1.5,0,.39,0,.74,0,1.05-.03.31-.02.58-.08.81-.2s.4-.29.53-.54c.13-.24.19-.6.21-1.06-.01-.73-.02-1.45,0-2.18,0-.73,0-1.46,0-2.2-.03-.63-.17-1.07-.44-1.34-.27-.27-.74-.4-1.4-.39h-2.29v5.72c-1.13.04-1.93-.11-2.42-.43-.48-.33-.72-.88-.71-1.67v-4.65c0-.43.06-.77.17-1.03s.26-.47.45-.61c.19-.14.41-.24.66-.28.25-.04.52-.07.81-.07.04.01.09.02.17.02h.73c.28,0,.56,0,.85,0,.29,0,.57,0,.84,0h1.46c1.35.03,2.39.44,3.11,1.23.72.8,1.08,1.86,1.08,3.19v4.93Z"/>
      <path class="cls-2" d="M123.65,33.62c.42.17.75.42.98.76.23.34.39.75.47,1.24.08.49.12,1.05.12,1.69,0,.89-.04,1.63-.11,2.21-.08.58-.26,1.05-.56,1.4-.3.35-.75.6-1.35.75-.6.15-1.43.23-2.48.24h-6.83v-1.52c-.01-.49.13-.85.43-1.09.3-.24.68-.36,1.13-.36.53,0,1,0,1.43,0,.43,0,.84,0,1.25,0h1.25c.43,0,.9,0,1.43-.02.18,0,.34,0,.49-.03.15-.02.28-.08.39-.17.11-.09.19-.23.25-.4.06-.18.1-.43.11-.75,0-.29-.03-.51-.09-.68-.06-.16-.15-.28-.26-.36s-.24-.12-.39-.14c-.15-.02-.32-.03-.51-.03l-3.01-.02c-.69-.02-1.29-.1-1.81-.24-.52-.13-.95-.35-1.29-.67-.34-.31-.59-.74-.74-1.29s-.22-1.25-.2-2.12c.03-.88.13-1.58.33-2.11.19-.53.48-.93.85-1.22.37-.29.83-.48,1.38-.58.55-.1,1.19-.15,1.92-.15,1.09-.01,2.25-.02,3.49-.02s2.4,0,3.49.02v1.52c.01.49-.13.85-.43,1.09-.3.24-.68.36-1.15.36h-5.13c-.21-.01-.4,0-.57,0-.17.02-.31.07-.42.15-.11.08-.2.2-.26.36-.06.16-.1.37-.11.65,0,.29.04.51.12.68.08.16.19.29.33.37.14.08.3.13.48.14.18.01.37.02.57.02l3.4.04c.68-.01,1.23.07,1.65.24Z"/>
      <path class="cls-3" d="M109.16,14.54v1.23c0,.16-.02.3-.06.44-.04.14-.1.26-.18.36-.08.1-.19.19-.32.25-.13.06-.28.09-.45.09h-.3c-.07,0-.14,0-.21,0-.07,0-.13,0-.21,0h-.3c-.17,0-.32-.03-.45-.09-.13-.06-.23-.14-.31-.25-.08-.11-.14-.23-.18-.37-.04-.14-.06-.29-.06-.44v-1.23c0-.16.02-.31.07-.44.05-.13.11-.25.2-.35.09-.1.2-.17.33-.23.13-.05.28-.08.45-.08h.46c.06,0,.12,0,.19,0,.07,0,.16,0,.27,0,.17,0,.32.03.45.08.13.05.24.13.33.23.09.1.16.21.2.35.05.13.07.28.07.44Z"/>
      <path class="cls-3" d="M95.62,14.54v1.23c0,.16-.02.3-.06.44-.04.14-.1.26-.18.36-.08.1-.19.19-.32.25-.13.06-.28.09-.45.09h-.3c-.07,0-.14,0-.21,0-.07,0-.13,0-.21,0h-.3c-.17,0-.32-.03-.45-.09-.13-.06-.23-.14-.31-.25-.08-.11-.14-.23-.18-.37-.04-.14-.06-.29-.06-.44v-1.23c0-.16.02-.31.07-.44.05-.13.11-.25.2-.35.09-.1.2-.17.33-.23.13-.05.28-.08.45-.08h.46c.06,0,.12,0,.19,0,.07,0,.16,0,.27,0,.17,0,.32.03.45.08.13.05.24.13.33.23.09.1.16.21.2.35.05.13.07.28.07.44Z"/>
      <g>
        <path class="cls-2" d="M93.46,29.2s.08.05.12.12c.07.12.03.22.06.3,0,.01.15.17.18.22.18.28.25.65.34.99,0,.06-.18.13-.22.12l-.09-.25-.02.28-.11.03-.03-.15v.17s-.04,0-.06-.01c-.03-.02-.02-.09-.05-.09v.12s-.06.02-.06.02l-.06-.29v.27c-.06.04-.12.06-.18.04l-.06-.19.02.21h-.05c-.04-.41-.09-.83.02-1.23-.02-.06-.06-.07-.08-.14-.05-.12-.05-.24,0-.36.02-.06.07-.11.08-.14.02-.06-.11-.49-.15-.58-.21-.64-.55-1.23-.53-1.98l-1.23.76c-.09-.75-.58-1.34-1.05-1.68-1.26-.93-3.24-.88-4.43.24-.35.33-.7.85-.76,1.44l-1.43-.87c-.27-.26.12-.42.27-.52,1.3-.84,2.67-1.73,4-2.5.19-.11.24-.18.46-.06.26.13.55.34.81.5,1.21.75,2.4,1.51,3.61,2.27.09.11.03.4.04.56.04.68.37,1.24.55,1.86.03.09.11.49.12.52Z"/>
        <path class="cls-2" d="M91.11,29.19c-.51-.76-1.25-1.19-1.99-1.38-1.28-.32-2.96-.01-3.88,1.34-.01.02-.01.05-.04.04,0-.06.01-.12.02-.18.01-.47-.01-.96.01-1.43.07-1.18,1.33-1.9,2.07-2.08,1.28-.31,3.3.05,3.78,1.96l.03,1.73Z"/>
      </g>
    </g>
  </g>
</svg>