<?xml version="1.0" encoding="UTF-8"?>
<svg id="SchoolGrads" xmlns="http://www.w3.org/2000/svg" viewBox="0 0 1000 1000">
  <defs>
    <style>
      .cls-1 {
        fill: #004080;
      }

      .cls-2 {
        fill: #001f3f;
      }

      .cls-3 {
        fill: #b2e600;
      }
    </style>
  </defs>
  <g id="Primary">
    <g>
      <path class="cls-2" d="M217.26,350.17c7.33,1.07,10.3,9.61,6.2,15.53-1.1,1.6-2.69,2.22-3.82,3.69l1.54,12.83c11.86-.75,23.78-.65,35.24,2.72,15.49,4.55,28.09,14.22,35.15,28.86.96,1.98,1.59,4.74,2.63,6.51,1.28,2.17,3.16,2.77,4.25,5.69,2.66,7.13,4.16,24.43,1.2,31.39-.59,1.4-1.69,2.47-2.16,3.8-1.02,2.85-1.31,6.37-2.5,9.43-5.39,13.91-21.31,20.79-35.31,22.33l-.38,2.61c11.06.89,26.59-.06,35.57,7.56.88.74,1.84,2.35,2.44,2.73,2.98,1.87,10.72-1.81,13.54-3.47,7.01-4.11,12.63-12.02,13.95-20.09-6.82-5.86-10.37-13.39-13.14-21.8-1.6-4.84-5.14-16.77-2.61-21.12,3.86-6.63,13.26.24,16.63,4.11,0-7.66-1.57-15.99-.74-23.6,1.46-13.53,17.22-11.32,17.44.94.95.22.64-.17.88-.52,1.74-2.52,2.91-4.73,6.05-5.86,7.26-2.62,12.17,3.35,11.36,10.36,3.02-2.9,7.62-4,11.26-1.52,5.02,3.42,2.83,10.94.66,15.43,6.54-2.83,12.16.09,11.1,7.72-.46,3.29-5.92,11.65-7.59,15.47-3.06,7-4.78,15.43-9.48,21.53-.84,1.09-2.5,2.11-3.08,3.28-1.05,2.1-1.49,6.35-2.28,8.85-8.1,25.95-28.77,43.48-55.86,47.1-.97.31-1.39,1.05-1.56,2.02-.71,4.29-.88,8.68-1.73,12.98-3.96,19.85-14.57,41.31-35.26,47.63,5.17,9.39-.46,17.98-9.54,21.47,4.07,3.81,5.57,9.56,2.32,14.44-6.67,9.99-36.06,9.93-42-.8-2.67-4.81-1.01-10.48,3.1-13.84-8.58-3.75-13.72-11.4-9.17-20.63-.09-.41-5.84-2.93-6.85-3.5-16.05-9.04-26.85-29.36-26.92-47.62-.92-.25-.67.22-.91.5-5.38,6.25-9.04,17.72-8.63,25.93.41,8.26,4.12,10.98,7.87,17.58,2.14,3.77,6.48,11.58,6.06,15.83-.49,4.92-6.81,6.57-10.96,5.38-2.17-.62-3.41-2.35-5.35-3.2,2.03,5.09,9.98,15.18,2.13,19.03-4.43,2.17-5.5-.52-8.27-.34-2.4.16-3.9,1.66-7.54,1.15-3.16-.44-4.45-2.6-6.62-3.71-1.89-.97-3.97-1.16-6.14-2.6-9.37-6.22-11.68-24.45-9.05-34.51.46-1.75,1.84-3.94,2.07-5.48.68-4.5-.03-10.85.42-15.87,2.92-32.08,18.05-66.69,52.07-74.74,1.96-.46,11.22-1.77,11.94-2.38.61-.51.65-3.15.01-3.6-.42-.3-3.34-.59-4.3-.87-8.04-2.33-17.12-7.19-22.11-14.07-.82-1.14-2.74-5.06-3.12-5.42-.78-.75-3.88-1.11-5.68-2.87-6.43-6.25-8.78-31.76-2.77-38.58.79-.89,3.18-2.3,3.29-2.47.56-.94,1.79-8.19,2.57-10.35,7.51-20.8,29.36-34.1,50.79-35.67l-1.23-13.48c-13.83-1.96-11.08-21.85,2.92-19.81ZM213.87,366.27c8.25,1.68,10.69-11.12,3-12.54-9.07-1.67-10.75,10.96-3,12.54ZM172.05,418.84c-2.15,7.87-.51,7.31,2.25,13.64,4.44,10.16,5.4,26.23,2.52,36.84-.5,1.84-1.69,2.85-1.38,4.94.54,3.65,8.47,9.67,11.65,11.43,13.33,7.39,35.89,5.67,50.95,4.7,32.89-2.12,57-6.17,55.45-45.11-1.31-32.98-16.35-55.34-51.19-57.73-23.87-1.63-62.74,3.87-70.24,31.29ZM334.24,458.98c-1.53-1.49-3.67-2.82-5.19-4.35-3.58-3.6-8.77-12.92-13.6-13.83-2.64-.5-3.7.59-3.64,3.24.09,4.55,3.56,15.21,5.33,19.71,4.93,12.54,15.26,22.9,29.4,23.87,20.4,1.4,20.95-17.64,27.69-31.57,1.19-2.46,7.49-11.28,5.13-13.57-2.46-2.4-7.18,1.06-9.11,2.83-1.36,1.24-5.39,6.65-6.41,7.11-1.36.62-3.14.02-3.16-1.62-.01-1.57,5.26-8.55,6.41-10.64,1.67-3,6.67-11.89,1.82-13.88-4.88-2-8.96,5.79-10.84,9.23-1.07,1.96-3.38,8.13-4.33,9.18-1.14,1.25-3.59,1.12-3.81-.65-.21-1.6,3.72-10.16,4.49-12.59,1-3.18,4.03-11.39-.21-13.12-7.9-3.22-10.76,14.11-11.42,18.98-.17,1.24.21,2.49-.18,3.79-.72,2.38-4.06,2.01-4.38-.36.14-4.46.71-8.91.6-13.39-.06-2.22-.31-6.66-.86-8.68-1.73-6.41-8.42-4.92-9.09,1.95-.71,7.18.41,19.62,1.19,27.03.57,5.46,8.53,7.71,10.42,12.63,1,2.61-.87,4.5-2.75,2.95-.81-.66-2.29-3.09-3.49-4.26ZM159.63,439.82c-1.12,5.71.16,18.56,2.48,23.94,3.27,7.57,9.88,6.75,10.54-1.77.47-5.97-.14-22.18-3.78-26.86-.56-.72-2-2.1-2.88-2.3-3.83-.85-5.77,3.95-6.36,6.99ZM358.28,490c-10.15,3.55-20.94.82-29.82-4.59-3.46,11.42-10.8,19.1-21.75,23.58-1.06.43-5.86,1.62-6.03,2.31,3.76,8.38,4.63,17.68,4.34,26.8,25.79-2.15,48.5-22.71,53.27-48.1ZM236.04,502.31c-13.42.62-29.75.77-42.81,3.3-2.63.51-4.91,1.13-6.9,3.07-.62,1.16,1.72,3.69,2.28,4.9,5.14,11.07,2.45,20.18,1.52,31.48-2.4,29.29,11.07,56.21,42.38,59.77,18.28,2.08,39.2-1.74,51.63-16.24,12.75-14.88,19.27-48.54,15.25-67.33-3.42-16-12.59-18.72-27.69-19.61-11.88-.7-23.88.13-35.66.67ZM169.79,558.5c7.34-13.86,23.9-22.28,14.13-41.03-2.95-5.65-7.77-9.79-14.21-6.76-21.4,10.07-32.5,48.76-33.26,70.49-.04,1.01-.27,5.69.61,5.76,8.49-3.25,18.34-3.41,27.23-1.97-.56-9.33,1.13-18.25,5.5-26.5ZM140.2,614.38c4.07-1.63,3.06,3.03,3.52,5.3,1.08,5.38,5.16,15.32,12.22,12.62l-3.4-5.15c-1.02-2.08-4.36-11.63-2.18-12.94.73-.44,1.55-.25,2.22.18,1.2.78,2.18,7.89,3.05,10.07,1.22,3.03,4.93,8.14,8.46,8.26,7.71.26-.3-10.34-1.48-13.26-1.11-2.77-3.64-15.17,2.44-11.19,3.14,2.06,4.3,9.29,10.46,8.04,3.26-.66,2.76-2.94,1.99-5.38-1.38-4.39-9.74-19.32-13.49-21.49-3.48-2.03-14.37-1.4-18.52-.75-6.28.99-10.29,3.25-11.66,9.81-1.86,8.92.26,22.68,7.77,28.64-.42-2.64-3.88-10.86-1.42-12.75ZM259.29,610.23c-10.76,4.49-26.17,4.84-37.17,1.02-1.23-.43-5.82-2.81-6.36-2.8-1.44.03-1.86,3.87-1.78,4.96.61,8.47,14.7,10.97,21.26,11.36,10.28.6,33.22-.56,28.41-16.29-.74-.51-3.38,1.34-4.36,1.74ZM249.07,632.61c-4.71,1.7-16.7,2.13-21.18-.11-2.44-1.22-3.91-4.96-6.44-.48-3.27,5.79,2.28,9.74,7.33,11.13,6.42,1.77,23.76,2.2,27.42-4.6,1.56-2.89.9-6.73-1.93-8.57-1.82.69-3.36,1.97-5.2,2.63Z"/>
      <g>
        <path class="cls-1" d="M293.48,445.28c1.55,38.94-22.56,42.99-55.45,45.11-15.06.97-37.61,2.69-50.95-4.7-3.17-1.76-11.1-7.77-11.65-11.43-.31-2.09.88-3.1,1.38-4.94,2.88-10.61,1.92-26.68-2.52-36.84-2.77-6.33-4.4-5.77-2.25-13.64,7.5-27.42,46.37-32.92,70.24-31.29,34.85,2.39,49.89,24.75,51.19,57.73ZM255.33,440.5c.51,5.52,5.27,14.75,11.89,10.31,7.12-4.77,5.26-24.57-4.25-25.12-6.61-.38-8.09,10.06-7.65,14.8ZM208.82,431.77c-5.36,6.75-2.27,23.86,7.75,23.26,10.97-.66,9.67-24.64-.91-26.15-3.04-.43-4.98.54-6.84,2.89ZM251.87,465.67c-5.11,2.94-14.53,3.58-20,1.46-1.89-.73-4.98-3.73-6.79-1.22-1.89,2.63,3.35,5.82,5.38,6.61,7.08,2.75,23.02,1.5,27.65-5.38.94-1.39.57-3.2-1.08-3.7-2.55-.77-3.36,1.19-5.16,2.23Z"/>
        <path class="cls-1" d="M299.4,521.25c4.02,18.8-2.49,52.45-15.25,67.33-12.43,14.5-33.35,18.32-51.63,16.24-31.31-3.57-44.79-30.48-42.38-59.77.93-11.3,3.62-20.41-1.52-31.48-.56-1.21-2.9-3.74-2.28-4.9,1.99-1.93,4.26-2.56,6.9-3.07,13.06-2.53,29.39-2.68,42.81-3.3,11.79-.54,23.78-1.38,35.66-.67,15.1.89,24.27,3.61,27.69,19.61ZM209.42,571.09c3.31-.04,7.91.02,11.1-.42.49-.07,1.77-.55,2.1-.88.97-.95.59-6.03.51-7.64-.52-10.26-1.47-22.84-2.78-32.99-.56-4.3-.98-4.73-5.38-4.59-3.36.1-8.66.34-11.89.83-2.83.43-2.7,2.67-2.6,4.94.46,11,1.47,24.47,2.78,35.38.15,1.28.4,4.1,1.3,4.85,1.67,1.4,3.29.54,4.86.52Z"/>
        <path class="cls-1" d="M337.73,463.24c-.81-.66-2.29-3.09-3.49-4.26-1.53-1.49-3.67-2.82-5.19-4.35-3.58-3.6-8.77-12.92-13.6-13.83-2.64-.5-3.7.59-3.64,3.24.09,4.55,3.56,15.21,5.33,19.71,4.93,12.54,15.26,22.9,29.4,23.87,20.4,1.4,20.95-17.64,27.69-31.57,1.19-2.46,7.49-11.28,5.13-13.57-2.46-2.4-7.18,1.06-9.11,2.83-1.36,1.24-5.39,6.65-6.41,7.11-1.36.62-3.14.02-3.16-1.62-.01-1.57,5.26-8.55,6.41-10.64,1.67-3,6.67-11.89,1.82-13.88-4.88-2-8.96,5.79-10.84,9.23-1.07,1.96-3.38,8.13-4.33,9.18-1.14,1.25-3.59,1.12-3.81-.65-.21-1.6,3.72-10.16,4.49-12.59,1-3.18,4.03-11.39-.21-13.12-7.9-3.22-10.76,14.11-11.42,18.98-.17,1.24.21,2.49-.18,3.79-.72,2.38-4.06,2.01-4.38-.36.14-4.46.71-8.91.6-13.39-.06-2.22-.31-6.66-.86-8.68-1.73-6.41-8.42-4.92-9.09,1.95-.71,7.18.41,19.62,1.19,27.03.57,5.46,8.53,7.71,10.42,12.63,1,2.61-.87,4.5-2.75,2.95Z"/>
        <path class="cls-1" d="M164.29,585c-.56-9.33,1.13-18.25,5.5-26.5,7.34-13.86,23.9-22.28,14.13-41.03-2.95-5.65-7.77-9.79-14.21-6.76-21.4,10.07-32.5,48.76-33.26,70.49-.04,1.01-.27,5.69.61,5.76,8.49-3.25,18.34-3.41,27.23-1.97Z"/>
        <path class="cls-1" d="M305.01,538.1c25.79-2.15,48.5-22.71,53.27-48.1-10.15,3.55-20.94.82-29.82-4.59-3.46,11.42-10.8,19.1-21.75,23.58-1.06.43-5.86,1.62-6.03,2.31,3.76,8.38,4.63,17.68,4.34,26.8Z"/>
        <path class="cls-1" d="M141.63,627.14c-.42-2.64-3.88-10.86-1.42-12.75,4.07-1.63,3.06,3.03,3.52,5.3,1.08,5.38,5.16,15.32,12.22,12.62l-3.4-5.15c-1.02-2.08-4.36-11.63-2.18-12.94.73-.44,1.55-.25,2.22.18,1.2.78,2.18,7.89,3.05,10.07,1.22,3.03,4.93,8.14,8.46,8.26,7.71.26-.3-10.34-1.48-13.26-1.11-2.77-3.64-15.17,2.44-11.19,3.14,2.06,4.3,9.29,10.46,8.04,3.26-.66,2.76-2.94,1.99-5.38-1.38-4.39-9.74-19.32-13.49-21.49-3.48-2.03-14.37-1.4-18.52-.75-6.28.99-10.29,3.25-11.66,9.81-1.86,8.92.26,22.68,7.77,28.64Z"/>
      </g>
      <path class="cls-3" d="M263.64,608.49c-.74-.51-3.38,1.34-4.36,1.74-10.76,4.49-26.17,4.84-37.17,1.02-1.23-.43-5.82-2.81-6.36-2.8-1.44.03-1.86,3.87-1.78,4.96.61,8.47,14.7,10.97,21.26,11.36,10.28.6,33.22-.56,28.41-16.29Z"/>
      <path class="cls-3" d="M165.99,432.83c-3.83-.85-5.77,3.95-6.36,6.99-1.12,5.71.16,18.56,2.48,23.94,3.27,7.57,9.88,6.75,10.54-1.77.47-5.97-.14-22.18-3.78-26.86-.56-.72-2-2.1-2.88-2.3Z"/>
      <path class="cls-3" d="M254.27,629.98c-1.82.69-3.36,1.97-5.2,2.63-4.71,1.7-16.7,2.13-21.18-.11-2.44-1.22-3.91-4.96-6.44-.48-3.27,5.79,2.28,9.74,7.33,11.13,6.42,1.77,23.76,2.2,27.42-4.6,1.56-2.89.9-6.73-1.93-8.57Z"/>
      <path class="cls-3" d="M216.87,353.74c-9.07-1.67-10.75,10.96-3,12.54,8.25,1.68,10.69-11.12,3-12.54Z"/>
      <path class="cls-3" d="M215.67,428.88c-3.04-.43-4.98.54-6.84,2.89-5.36,6.75-2.27,23.86,7.75,23.26,10.97-.66,9.67-24.64-.91-26.15Z"/>
      <path class="cls-3" d="M262.98,425.69c-6.61-.38-8.09,10.06-7.65,14.8.51,5.52,5.27,14.75,11.89,10.31,7.12-4.77,5.26-24.57-4.25-25.12Z"/>
      <path class="cls-3" d="M257.03,463.44c-2.55-.77-3.36,1.19-5.16,2.23-5.11,2.94-14.53,3.58-20,1.46-1.89-.73-4.98-3.73-6.79-1.22-1.89,2.63,3.35,5.82,5.38,6.61,7.08,2.75,23.02,1.5,27.65-5.38.94-1.39.57-3.2-1.08-3.7Z"/>
      <path d="M203.25,565.72c-1.31-10.91-2.32-24.38-2.78-35.38-.1-2.27-.23-4.51,2.6-4.94,3.23-.5,8.53-.73,11.89-.83,4.4-.14,4.82.29,5.38,4.59,1.31,10.15,2.26,22.73,2.78,32.99.08,1.61.47,6.69-.51,7.64-.33.32-1.61.81-2.1.88-3.19.44-7.79.38-11.1.42-1.57.02-3.19.88-4.86-.52-.9-.76-1.15-3.58-1.3-4.85ZM205.23,536.9l11.36-.78-.67-7.12-11.03.81.34,7.1ZM206.49,548.37l11.08-.34-.4-7.56-11.53.8.85,7.1ZM207.22,559.96l11.13-.4-.4-7.56-11.13.8.39,7.15ZM207.68,566.46l.52.55,10.16-.7-.64-2.8-10.09.82.05,2.13Z"/>
      <polygon class="cls-3" points="204.89 529.8 205.23 536.9 216.6 536.12 215.93 528.99 204.89 529.8"/>
      <polygon class="cls-3" points="205.63 541.28 206.49 548.37 217.56 548.03 217.16 540.48 205.63 541.28"/>
      <polygon class="cls-3" points="206.83 552.81 207.22 559.96 218.36 559.56 217.96 552 206.83 552.81"/>
      <polygon class="cls-3" points="207.63 564.34 207.68 566.46 208.2 567.01 218.36 566.32 217.71 563.51 207.63 564.34"/>
      <path class="cls-3" d="M333.58,392.22c1.32,1.32,2.7.46,3.39-.99,2.88-6.07,3.82-15.15,6.77-21.48.47-2.82-2.79-4.26-4.09-1.29-1.38,3.14-6.14,18.29-6.48,21.38-.08.73-.15,1.82.41,2.38Z"/>
      <path class="cls-3" d="M314.54,371.31c-.85-.28-2.3-.12-2.73.73l3.39,20.86c.23,1.03,1.19,1.61,2.19,1.79,1-.03,2.05-1.57,1.8-2.55-1.49-5.94-1.92-12.2-3.38-18.13-.2-.83-.42-2.43-1.27-2.71Z"/>
      <path class="cls-3" d="M362.64,387.21c-.63-.22-1.5-.14-2.11.14-3.21,2.98-6.62,5.87-9.76,8.92-.63.62-3.38,3.16-3.58,3.6-.79,1.75,1.87,3.67,3.37,2.15l12.52-11.33c.93-.82.74-3.08-.44-3.49Z"/>
    </g>
    <g>
      <path class="cls-2" d="M492.3,432.8c2.49,1,4.42,2.5,5.79,4.51,1.37,2,2.3,4.45,2.78,7.35.48,2.89.72,6.23.72,10.02,0,5.27-.22,9.63-.67,13.08-.45,3.45-1.56,6.22-3.34,8.29-1.78,2.08-4.45,3.56-8.02,4.45-3.56.89-8.46,1.37-14.7,1.45h-40.41v-9.02c-.07-2.89.78-5.05,2.56-6.46,1.78-1.41,4.01-2.12,6.68-2.12,3.12,0,5.94.02,8.46.06,2.52.04,4.99.06,7.4.06h7.4c2.52,0,5.34-.04,8.46-.11,1.04,0,2-.06,2.89-.17.89-.11,1.65-.45,2.28-1,.63-.56,1.13-1.35,1.5-2.39.37-1.04.59-2.52.67-4.45,0-1.71-.19-3.04-.56-4.01-.37-.96-.89-1.67-1.56-2.12s-1.45-.72-2.34-.84c-.89-.11-1.89-.17-3.01-.17l-17.81-.11c-4.08-.15-7.66-.61-10.74-1.39-3.08-.78-5.62-2.1-7.63-3.95-2-1.85-3.47-4.4-4.4-7.63-.93-3.23-1.32-7.4-1.17-12.53.15-5.19.8-9.35,1.95-12.47,1.15-3.12,2.82-5.53,5.01-7.24,2.19-1.71,4.92-2.86,8.18-3.45,3.27-.59,7.05-.89,11.36-.89,6.46-.07,13.34-.11,20.65-.11s14.2.04,20.65.11v9.02c.07,2.89-.78,5.05-2.56,6.46-1.78,1.41-4.05,2.12-6.79,2.12h-30.39c-1.26-.07-2.39-.06-3.4.06-1,.11-1.84.41-2.5.89-.67.48-1.19,1.19-1.56,2.12-.37.93-.6,2.21-.67,3.84,0,1.71.24,3.04.72,4.01.48.97,1.13,1.69,1.95,2.17.82.48,1.76.76,2.84.84,1.08.07,2.21.11,3.4.11l20.15.22c4.01-.07,7.25.39,9.74,1.39Z"/>
      <path class="cls-2" d="M566.39,399.57v9.24c0,2.97-.89,5.14-2.67,6.51-1.78,1.37-4.01,2.06-6.68,2.06h-18.48c-3.94-.07-6.7.69-8.29,2.28-1.6,1.6-2.47,4.29-2.62,8.07-.07,4.31-.09,8.61-.06,12.91.04,4.31.06,8.65.06,13.03,0,2.75.37,4.84,1.11,6.29.74,1.45,1.78,2.49,3.12,3.12,1.34.63,2.93,1,4.79,1.11,1.85.11,3.97.21,6.35.28,2.45,0,4.66-.02,6.62-.06,1.97-.04,4.21-.02,6.74.06,2.67,0,4.97.58,6.9,1.73,1.93,1.15,2.89,3.32,2.89,6.51v9.24h-32.84c-4.08.07-7.63-.59-10.63-2-3.01-1.41-5.49-3.38-7.46-5.9-1.97-2.52-3.41-5.44-4.34-8.74-.93-3.3-1.39-6.81-1.39-10.52v-29.17c0-7.87,2.13-14.14,6.4-18.82,4.27-4.68,10.45-7.09,18.54-7.24h31.95Z"/>
      <path class="cls-2" d="M642.49,435.42c-.04,11.95-.02,23.98.06,36.07,0,3.12-.65,5.62-1.95,7.52-1.3,1.89-3.51,2.8-6.62,2.73h-10.47v-33.07h-29.95l-.22,33.07h-10.35c-3.19,0-5.44-.93-6.74-2.78-1.3-1.85-1.95-4.34-1.95-7.46v-72.15l10.69.11c3.19-.07,5.46.82,6.79,2.67,1.34,1.86,1.97,4.38,1.89,7.57l-.11,22.6h29.84v-22.6c0-3.12.65-5.62,1.95-7.52,1.3-1.89,3.51-2.8,6.62-2.73l10.47-.11c.07,12.1.09,24.12.06,36.07Z"/>
      <path class="cls-2" d="M722.4,453.96c0,3.71-.46,7.22-1.39,10.52-.93,3.3-2.38,6.2-4.34,8.68-1.97,2.49-4.47,4.45-7.52,5.9-3.04,1.45-6.61,2.13-10.69,2.06h-7.07c-1.74,0-3.4-.02-4.95-.06-1.56-.04-3.21-.06-4.95-.06h-7.07c-4.08.07-7.63-.59-10.63-2-3.01-1.41-5.49-3.38-7.46-5.9-1.97-2.52-3.41-5.44-4.34-8.74-.93-3.3-1.39-6.81-1.39-10.52v-29.17c0-3.86.56-7.38,1.67-10.58,1.11-3.19,2.73-5.94,4.84-8.24,2.12-2.3,4.71-4.08,7.79-5.34,3.08-1.26,6.62-1.89,10.63-1.89h11.02c1.34,0,2.8.02,4.4.06,1.6.04,3.77.06,6.51.06,4.01,0,7.55.63,10.63,1.89,3.08,1.26,5.68,3.04,7.79,5.34,2.12,2.3,3.73,5.05,4.84,8.24,1.11,3.19,1.67,6.72,1.67,10.58v29.17ZM690,463.54c1.93,0,3.69-.09,5.29-.28,1.6-.18,2.95-.63,4.06-1.34,1.11-.7,1.98-1.78,2.62-3.23.63-1.45.95-3.4.95-5.84v-26.05c-.15-3.79-1.02-6.46-2.62-8.02-1.6-1.56-4.36-2.3-8.29-2.23h-4.01c-.59,0-1.06-.02-1.39-.06-.33-.04-.8-.06-1.39-.06h-4.01c-3.93-.07-6.7.67-8.29,2.23-1.6,1.56-2.47,4.23-2.62,8.02-.07,4.38-.09,8.72-.06,13.03.04,4.31.06,8.65.06,13.03,0,2.38.28,4.27.84,5.68.56,1.41,1.35,2.49,2.39,3.23,1.04.74,2.28,1.24,3.73,1.5,1.45.26,3.06.39,4.84.39h7.9Z"/>
      <path class="cls-2" d="M802.57,453.96c0,3.71-.46,7.22-1.39,10.52-.93,3.3-2.38,6.2-4.34,8.68-1.97,2.49-4.47,4.45-7.52,5.9-3.04,1.45-6.61,2.13-10.69,2.06h-7.07c-1.74,0-3.4-.02-4.95-.06-1.56-.04-3.21-.06-4.95-.06h-7.07c-4.08.07-7.63-.59-10.63-2-3.01-1.41-5.49-3.38-7.46-5.9-1.97-2.52-3.41-5.44-4.34-8.74-.93-3.3-1.39-6.81-1.39-10.52v-29.17c0-3.86.56-7.38,1.67-10.58,1.11-3.19,2.73-5.94,4.84-8.24,2.12-2.3,4.71-4.08,7.79-5.34,3.08-1.26,6.62-1.89,10.63-1.89h11.02c1.34,0,2.8.02,4.4.06,1.6.04,3.77.06,6.51.06,4.01,0,7.55.63,10.63,1.89,3.08,1.26,5.68,3.04,7.79,5.34,2.12,2.3,3.73,5.05,4.84,8.24,1.11,3.19,1.67,6.72,1.67,10.58v29.17ZM770.17,463.54c1.93,0,3.69-.09,5.29-.28,1.6-.18,2.95-.63,4.06-1.34,1.11-.7,1.98-1.78,2.62-3.23.63-1.45.95-3.4.95-5.84v-26.05c-.15-3.79-1.02-6.46-2.62-8.02-1.6-1.56-4.36-2.3-8.29-2.23h-4.01c-.59,0-1.06-.02-1.39-.06-.33-.04-.8-.06-1.39-.06h-4.01c-3.93-.07-6.7.67-8.29,2.23-1.6,1.56-2.47,4.23-2.62,8.02-.07,4.38-.09,8.72-.06,13.03.04,4.31.06,8.65.06,13.03,0,2.38.28,4.27.84,5.68.56,1.41,1.35,2.49,2.39,3.23,1.04.74,2.28,1.24,3.73,1.5,1.45.26,3.06.39,4.84.39h7.9Z"/>
      <path class="cls-2" d="M864.55,466.31c1.85,1.37,2.78,3.62,2.78,6.74v8.91h-29.5c-3.41-.15-6.83-.59-10.24-1.34-3.41-.74-6.46-2.19-9.13-4.34-1.56-1.34-2.82-2.84-3.79-4.51-.97-1.67-1.71-3.43-2.23-5.29-.52-1.85-.89-3.77-1.11-5.73-.22-1.97-.37-3.91-.45-5.85v-55.33h10.58c3.12,0,5.32.93,6.62,2.78,1.3,1.86,1.95,4.34,1.95,7.46-.07,6.98-.11,14.16-.11,21.54v21.54c0,1.78.18,3.62.56,5.51.37,1.89,1.34,3.4,2.89,4.51,1.04.59,2.12.97,3.23,1.11,1.11.15,2.23.22,3.34.22h17.15c3.12,0,5.6.69,7.46,2.06Z"/>
      <path class="cls-2" d="M498.37,560.82c0,3.12.02,6.46.06,10.02.04,3.56.06,6.9.06,10.02-.07,3.12-.22,5.79-.45,8.02-.22,2.23-.82,4.05-1.78,5.46-.97,1.41-2.47,2.43-4.51,3.06-2.04.63-4.88.91-8.52.84h-25.27c-4.16.07-7.74-.59-10.74-2-3.01-1.41-5.49-3.38-7.46-5.9-1.97-2.52-3.41-5.44-4.34-8.74-.93-3.3-1.39-6.81-1.39-10.52v-29.17c0-3.86.56-7.38,1.67-10.58,1.11-3.19,2.73-5.94,4.84-8.24,2.12-2.3,4.71-4.08,7.79-5.34,3.08-1.26,6.62-1.89,10.63-1.89h39.3v9.02c.07,2.89-.78,5.05-2.56,6.46-1.78,1.41-4.01,2.12-6.68,2.12h-25.94c-3.94-.07-6.64.72-8.13,2.39-1.49,1.67-2.3,4.4-2.45,8.18v25.94c0,2.75.35,4.84,1.06,6.29.7,1.45,1.71,2.49,3.01,3.12,1.3.63,2.86,1,4.68,1.11,1.82.11,3.91.21,6.29.28h5.57c1.11,0,2.21-.02,3.28-.06,1.08-.04,2.02-.06,2.84-.06v-14.81h-19.15v-8.91c-.07-3.12.82-5.33,2.67-6.62,1.85-1.3,4.38-1.95,7.57-1.95h15.7c2.45.07,4.47.24,6.07.5,1.6.26,2.86.82,3.79,1.67.93.85,1.58,2.1,1.95,3.73.37,1.63.56,3.82.56,6.57Z"/>
      <path class="cls-2" d="M590.01,601.36c-1.49,0-3.06-.02-4.73-.06-1.67-.04-3.25-.02-4.73.06-4.31.07-7.39-.59-9.24-2-1.86-1.41-3.16-3.75-3.9-7.01-.59-2.6-1.15-5.25-1.67-7.96-.52-2.71-1.08-5.36-1.67-7.96-.67-3.12-1.69-5.21-3.06-6.29-1.37-1.08-3.43-1.61-6.18-1.61-1.86,0-3.97-.02-6.35-.06-2.38-.04-4.79-.07-7.24-.11-2.45-.04-4.86-.06-7.24-.06h-6.35c0-2.82.02-5.58.06-8.29.04-2.71.06-5.44.06-8.18h27.22c3.08,0,5.51-.07,7.29-.22,1.71-.3,2.93-1.11,3.67-2.45.74-1.34,1.15-2.82,1.22-4.45.15-1.56-.04-3.06-.56-4.51-.52-1.45-1.52-2.47-3.01-3.06-1.49-.52-3.08-.78-4.79-.78h-20.82c-3.19,0-5.72-.65-7.57-1.95-1.86-1.3-2.75-3.51-2.67-6.62v-8.91h14.97c2.49,0,5.01.02,7.57.06,2.56.04,5.03.06,7.4.06h6.12c2.67.07,5.34.39,8.02.95,2.67.56,5.07,1.43,7.18,2.62,2.12,1.19,3.84,2.73,5.18,4.62,1.34,1.89,2,4.21,2,6.96v14.03c0,1.71-.5,3.27-1.5,4.68-1,1.41-2.3,2.62-3.9,3.62-1.6,1-3.38,1.8-5.34,2.39-1.97.59-3.88.89-5.73.89v.67c1.26.07,2.5.17,3.73.28,1.22.11,2.39.35,3.51.72,1.11.37,2.1.91,2.95,1.61.85.71,1.5,1.65,1.95,2.84.82,2.15,1.63,4.88,2.45,8.18.82,3.3,1.58,6.68,2.28,10.13.7,3.45,1.35,6.74,1.95,9.85.59,3.12,1.08,5.57,1.45,7.35Z"/>
      <path class="cls-2" d="M661.83,518.04c2.08,1.04,3.86,2.62,5.34,4.73,1.48,2.12,2.6,4.36,3.34,6.74,3.79,11.51,7.55,22.9,11.3,34.18,3.75,11.28,7.52,22.68,11.3,34.18h-8.57c-3.12,0-5.99-.65-8.63-1.95-2.64-1.3-4.51-3.69-5.62-7.18l-16.92-54.11c-.52-1.56-1.26-2.3-2.23-2.23-.97.07-1.67.85-2.12,2.34-3.04,9.13-5.83,18.22-8.35,27.28-2.52,9.06-5.31,18.19-8.35,27.39-.97,2.89-2.73,5.03-5.29,6.4-2.56,1.37-5.36,2.06-8.41,2.06h-8.91c3.56-10.84,7.09-21.64,10.58-32.4,3.49-10.76,7.01-21.56,10.58-32.4.45-1.48,1-3.01,1.67-4.56s1.46-3.04,2.39-4.45c.93-1.41,1.98-2.71,3.17-3.9,1.19-1.19,2.52-2.12,4.01-2.78,3.12-1.41,6.42-2.06,9.91-1.95,3.49.11,6.75.98,9.8,2.62Z"/>
      <path class="cls-2" d="M774.57,571.06c0,3.71-.46,7.22-1.39,10.52-.93,3.3-2.38,6.2-4.34,8.68-1.97,2.49-4.45,4.45-7.46,5.9-3.01,1.45-6.55,2.1-10.63,1.95-2.82,0-5.81.02-8.96.06-3.16.04-6.35.06-9.57.06h-18.54l.11-9.24c0-1.56.24-2.88.72-3.95.48-1.08,1.17-1.95,2.06-2.62s1.93-1.13,3.12-1.39c1.19-.26,2.45-.39,3.79-.39,2.52-.07,5.47-.09,8.85-.06,3.38.04,6.33.06,8.85.06,2.3,0,4.38-.06,6.23-.17,1.85-.11,3.45-.5,4.79-1.17,1.34-.67,2.37-1.73,3.12-3.17.74-1.45,1.15-3.54,1.22-6.29-.07-4.3-.09-8.61-.06-12.91.04-4.3.02-8.65-.06-13.03-.15-3.71-1.02-6.36-2.62-7.96-1.6-1.6-4.36-2.36-8.29-2.28h-13.58v33.85c-6.68.22-11.45-.63-14.31-2.56-2.86-1.93-4.25-5.23-4.18-9.91v-27.5c0-2.52.33-4.56,1-6.12.67-1.56,1.56-2.76,2.67-3.62,1.11-.85,2.41-1.41,3.9-1.67,1.48-.26,3.08-.39,4.79-.39.22.07.56.11,1,.11h4.34c1.63,0,3.3-.02,5.01-.06,1.71-.04,3.36-.06,4.95-.06h8.63c8.02.15,14.16,2.58,18.43,7.29,4.27,4.71,6.4,11,6.4,18.87v29.17Z"/>
      <path class="cls-2" d="M861.33,549.07c2.49,1,4.42,2.5,5.79,4.51,1.37,2,2.3,4.45,2.78,7.35.48,2.89.72,6.23.72,10.02,0,5.27-.22,9.63-.67,13.08-.45,3.45-1.56,6.22-3.34,8.29-1.78,2.08-4.45,3.56-8.02,4.45-3.56.89-8.46,1.37-14.7,1.45h-40.41v-9.02c-.07-2.89.78-5.05,2.56-6.46,1.78-1.41,4.01-2.12,6.68-2.12,3.12,0,5.94.02,8.46.06,2.52.04,4.99.06,7.4.06h7.4c2.52,0,5.34-.04,8.46-.11,1.04,0,2-.06,2.89-.17.89-.11,1.65-.45,2.28-1,.63-.56,1.13-1.35,1.5-2.39.37-1.04.59-2.52.67-4.45,0-1.71-.19-3.04-.56-4.01-.37-.96-.89-1.67-1.56-2.12-.67-.45-1.45-.72-2.34-.84-.89-.11-1.89-.17-3.01-.17l-17.81-.11c-4.08-.15-7.66-.61-10.74-1.39-3.08-.78-5.62-2.1-7.63-3.95-2-1.85-3.47-4.4-4.4-7.63-.93-3.23-1.32-7.4-1.17-12.53.15-5.19.8-9.35,1.95-12.47,1.15-3.12,2.82-5.53,5.01-7.24,2.19-1.71,4.92-2.86,8.18-3.45,3.27-.59,7.05-.89,11.36-.89,6.46-.07,13.34-.11,20.65-.11s14.2.04,20.65.11v9.02c.07,2.89-.78,5.05-2.56,6.46-1.78,1.41-4.05,2.12-6.79,2.12h-30.39c-1.26-.07-2.39-.06-3.4.06-1,.11-1.84.41-2.5.89-.67.48-1.19,1.19-1.56,2.12-.37.93-.6,2.21-.67,3.84,0,1.71.24,3.04.72,4.01.48.97,1.13,1.69,1.95,2.17.82.48,1.76.76,2.84.84,1.08.07,2.21.11,3.4.11l20.15.22c4.01-.07,7.25.39,9.74,1.39Z"/>
      <path class="cls-3" d="M775.6,436.13v7.26c0,.93-.11,1.8-.34,2.62-.23.82-.59,1.54-1.09,2.16-.49.62-1.11,1.11-1.87,1.47-.76.36-1.64.53-2.66.51h-1.76c-.43,0-.84,0-1.23-.01-.39-.01-.79-.01-1.23-.01h-1.76c-1.02.02-1.9-.15-2.65-.5-.75-.35-1.36-.84-1.86-1.46-.49-.63-.85-1.35-1.08-2.18-.23-.82-.34-1.7-.34-2.62v-7.26c0-.96.14-1.84.42-2.63.27-.79.68-1.48,1.2-2.05.53-.58,1.17-1.01,1.94-1.33.76-.31,1.65-.47,2.64-.47h2.75c.33,0,.7,0,1.1.01.4.01.94.02,1.62.02,1,0,1.88.15,2.64.47.77.31,1.42.76,1.95,1.33.52.57.93,1.25,1.2,2.05.28.79.42,1.67.42,2.63Z"/>
      <path class="cls-3" d="M695.43,436.13v7.26c0,.93-.11,1.8-.34,2.62-.23.82-.59,1.54-1.09,2.16-.49.62-1.11,1.11-1.87,1.47-.76.36-1.64.53-2.66.51h-1.76c-.43,0-.84,0-1.23-.01-.39-.01-.79-.01-1.23-.01h-1.76c-1.02.02-1.9-.15-2.65-.5-.75-.35-1.36-.84-1.86-1.46-.49-.63-.85-1.35-1.08-2.18-.23-.82-.34-1.7-.34-2.62v-7.26c0-.96.14-1.84.42-2.63.27-.79.68-1.48,1.2-2.05.53-.58,1.17-1.01,1.94-1.33.76-.31,1.65-.47,2.64-.47h2.75c.33,0,.7,0,1.1.01.4.01.94.02,1.62.02,1,0,1.88.15,2.64.47.77.31,1.42.76,1.95,1.33.52.57.93,1.25,1.2,2.05.28.79.42,1.67.42,2.63Z"/>
      <g>
        <path class="cls-2" d="M682.64,522.9c.13.22.47.3.7.74.39.73.17,1.33.34,1.78.03.09.88,1.02,1.06,1.3,1.04,1.65,1.49,3.83,1.99,5.85-.03.35-1.06.76-1.29.69l-.52-1.5-.09,1.68-.64.18-.18-.87v.99c-.13,0-.26.03-.37-.06-.16-.13-.1-.54-.27-.56l-.02.73-.35.14-.37-1.74-.02,1.59c-.34.25-.69.35-1.08.25l-.38-1.1.09,1.24h-.28c-.22-2.44-.53-4.89.09-7.28-.14-.34-.34-.43-.5-.81-.3-.73-.32-1.4-.04-2.15.14-.38.44-.64.5-.83.13-.38-.68-2.89-.86-3.44-1.26-3.8-3.23-7.3-3.15-11.72l-7.27,4.47c-.54-4.41-3.41-7.91-6.2-9.96-7.45-5.49-19.2-5.22-26.24,1.41-2.09,1.97-4.17,5.01-4.48,8.55l-8.47-5.15c-1.61-1.54.69-2.49,1.6-3.07,7.71-4.98,15.82-10.26,23.66-14.79,1.15-.67,1.42-1.04,2.7-.37,1.54.79,3.26,2.04,4.79,2.98,7.14,4.41,14.24,8.95,21.34,13.44.53.62.18,2.34.23,3.29.22,4.03,2.21,7.37,3.27,11,.15.53.62,2.92.72,3.07Z"/>
        <path class="cls-2" d="M668.71,522.81c-3-4.51-7.41-7.06-11.78-8.15-7.57-1.88-17.55-.07-22.94,7.94-.08.12-.08.27-.26.21-.03-.36.09-.7.1-1.05.08-2.77-.07-5.7.08-8.46.39-6.97,7.87-11.26,12.23-12.32,7.56-1.84,19.52.31,22.38,11.6l.19,10.24Z"/>
      </g>
    </g>
  </g>
</svg>